<svg height="512pt" viewBox="0 -33 512 512" width="512pt" xmlns="http://www.w3.org/2000/svg"><path d="m405.101562 405.101562-28.238281 15.0625c-1.765625.941407-3.882812.941407-5.644531 0l-25.417969-13.554687c-1.765625-.941406-3.882812-.941406-5.648437 0l-25.414063 13.554687c-1.765625.941407-3.882812.941407-5.644531 0l-25.417969-13.554687c-1.765625-.941406-3.882812-.945313-5.648437-.003906-5.90625 3.152343-19.507813 10.410156-25.414063 13.558593-1.765625.941407-3.882812.941407-5.648437 0l-25.414063-13.554687c-1.765625-.941406-3.882812-.941406-5.648437 0l-25.414063 13.554687c-1.761719.941407-3.882812.941407-5.644531 0l-28.242188-15.0625h-5v-364.222656h5l28.238282-15.0625c1.765625-.9375 3.882812-.9375 5.648437 0l25.414063 13.558594c1.765625.941406 3.882812.941406 5.648437 0l25.414063-13.554688c1.765625-.941406 3.882812-.941406 5.644531 0l25.417969 13.554688c1.765625.941406 3.882812.941406 5.644531 0 5.90625-3.148438 19.511719-10.40625 25.417969-13.554688 1.765625-.941406 3.882812-.941406 5.644531 0l25.417969 13.554688c1.765625.941406 3.882812.941406 5.648437 0l25.414063-13.554688c1.765625-.941406 3.882812-.941406 5.644531 0l28.242187 15.0625h5v364.222657h-5zm0 0" fill="#333"/><path d="m504.5 421.667969c0 9.148437-7.417969 16.566406-16.566406 16.566406h-66.269532c-9.148437 0-16.5625-7.417969-16.5625-16.566406v-397.601563c0-9.148437 7.414063-16.566406 16.5625-16.566406h66.269532c9.148437 0 16.566406 7.417969 16.566406 16.566406zm0 0" fill="#e24242"/><path d="m487.933594 7.5h-24c9.152344 0 16.566406 7.417969 16.566406 16.566406v397.601563c0 9.148437-7.414062 16.566406-16.566406 16.566406h24c9.152344 0 16.566406-7.417969 16.566406-16.566406v-397.601563c0-9.148437-7.414062-16.566406-16.566406-16.566406zm0 0" fill="#d13838"/><path d="m156.601562 421.671875c0 9.148437-7.417968 16.566406-16.566406 16.566406h-115.96875c-9.148437 0-16.566406-7.417969-16.566406-16.566406v-397.605469c0-9.148437 7.417969-16.566406 16.566406-16.566406h115.96875c9.148438 0 16.566406 7.417969 16.566406 16.566406zm0 0" fill="#e24242"/><path d="m7.5 40.632812h93.402344c3.3125 0 6 2.6875 6 6v352.46875c0 3.316407-2.6875 6-6 6h-93.402344zm0 0" fill="#d9e7ec"/><path d="m100.902344 40.632812h-24c3.3125 0 6 2.6875 6 6v352.46875c0 3.316407-2.6875 6-6 6h24c3.3125 0 6-2.683593 6-6v-352.46875c0-3.3125-2.6875-6-6-6zm0 0" fill="#aad4ec"/><path d="m444.234375 73.769531h21.132813c3.316406 0 6 2.683594 6 6v21.132813c0 3.3125-2.683594 6-6 6h-21.132813c-3.316406 0-6-2.6875-6-6v-21.132813c0-3.316406 2.6875-6 6-6zm0 0" fill="#fdbf00"/><path d="m444.234375 206.425781h21.132813c3.316406 0 6 2.683594 6 6v21.132813c0 3.3125-2.683594 6-6 6h-21.132813c-3.316406 0-6-2.6875-6-6v-21.132813c0-3.316406 2.6875-6 6-6zm0 0" fill="#fdbf00"/><path d="m444.234375 339.082031h21.132813c3.316406 0 6 2.683594 6 6v21.132813c0 3.3125-2.683594 6-6 6h-21.132813c-3.316406 0-6-2.6875-6-6v-21.132813c0-3.316406 2.6875-6 6-6zm0 0" fill="#fdbf00"/><path d="m218.726562 40.078125c-.96875 0-1.941406-.234375-2.824218-.707031l-25.417969-13.554688c-.878906-.46875-1.851563-.707031-2.824219-.707031v395.761719c.972656 0 1.945313-.234375 2.828125-.707032l25.414063-13.554687c.882812-.472656 1.851562-.707031 2.824218-.707031zm0 0" fill="#2b2b2b"/><path d="m280.851562 40.078125c-.96875 0-1.941406-.234375-2.824218-.707031l-25.417969-13.554688c-.878906-.46875-1.851563-.707031-2.824219-.707031v395.761719c.972656 0 1.945313-.234375 2.828125-.707032l25.414063-13.554687c.882812-.472656 1.851562-.707031 2.824218-.707031zm0 0" fill="#2b2b2b"/><path d="m342.976562 40.078125c-.972656 0-1.941406-.234375-2.824218-.707031l-25.417969-13.554688c-.882813-.46875-1.851563-.707031-2.824219-.707031v395.761719c.972656 0 1.945313-.234375 2.828125-.707032l25.414063-13.554687c.882812-.472656 1.851562-.707031 2.824218-.707031zm0 0" fill="#2b2b2b"/><path d="m140.035156 7.5h-24c9.148438 0 16.566406 7.417969 16.566406 16.566406v397.601563c0 9.148437-7.417968 16.566406-16.566406 16.566406h24c9.148438 0 16.566406-7.417969 16.566406-16.566406v-397.601563c0-9.148437-7.417968-16.566406-16.566406-16.566406zm0 0" fill="#d13838"/><g fill="#333"><path d="m106.902344 73.769531h-43.703125c-3.3125 0-6 2.683594-6 6v21.132813c0 3.3125 2.6875 6 6 6h43.703125zm0 0"/><path d="m106.902344 140.035156h-43.703125c-3.3125 0-6 2.6875-6 6v21.132813c0 3.316406 2.6875 6 6 6h43.703125zm0 0"/><path d="m106.902344 206.304688h-43.703125c-3.3125 0-6 2.683593-6 6v21.132812c0 3.3125 2.6875 6 6 6h43.703125zm0 0"/><path d="m106.902344 272.570312h-43.703125c-3.3125 0-6 2.6875-6 6v21.132813c0 3.316406 2.6875 6 6 6h43.703125zm0 0"/><path d="m106.902344 338.835938h-43.703125c-3.3125 0-6 2.6875-6 6v21.136718c0 3.3125 2.6875 6 6 6h43.703125zm0 0"/></g><path d="m82.902344 73.769531h24v33.132813h-24zm0 0" fill="#2b2b2b"/><path d="m82.902344 140.035156h24v33.136719h-24zm0 0" fill="#2b2b2b"/><path d="m82.902344 206.304688h24v33.132812h-24zm0 0" fill="#2b2b2b"/><path d="m82.902344 272.570312h24v33.132813h-24zm0 0" fill="#2b2b2b"/><path d="m82.902344 338.839844h24v33.132812h-24zm0 0" fill="#2b2b2b"/><path d="m487.933594 0h-66.265625c-13.269531 0-24.066407 10.796875-24.066407 24.066406v4.3125l-16.0625-8.566406v-4.027344c0-4.144531-3.359374-7.5-7.5-7.5-4.144531 0-7.5 3.355469-7.5 7.5v4.027344l-23.5625 12.566406-23.5625-12.566406v-4.027344c0-4.144531-3.359374-7.5-7.5-7.5-4.144531 0-7.5 3.355469-7.5 7.5v4.027344l-23.5625 12.566406-23.5625-12.566406v-4.027344c0-4.144531-3.359374-7.5-7.5-7.5-4.144531 0-7.5 3.355469-7.5 7.5v4.027344l-23.5625 12.566406-23.5625-12.566406v-4.03125c0-4.140625-3.359374-7.5-7.5-7.5-4.144531 0-7.5 3.359375-7.5 7.5v4.03125l-16.0625 8.566406v-4.3125c0-13.269531-10.796874-24.066406-24.066406-24.066406h-59.335937c-4.140625 0-7.5 3.359375-7.5 7.5s3.359375 7.5 7.5 7.5h59.335937c5 0 9.066406 4.066406 9.066406 9.066406v16.738282.058593 364.25.070313 16.488281c0 4.996094-4.066406 9.0625-9.066406 9.0625h-115.96875c-5 0-9.066406-4.066406-9.066406-9.0625v-9.070313h91.902344c4.140625 0 7.5-3.355468 7.5-7.5v-364.46875c0-4.140624-3.359375-7.5-7.5-7.5h-91.902344v-9.066406c0-5 4.066406-9.066406 9.066406-9.066406h25.632813c4.144531 0 7.5-3.355469 7.5-7.5 0-4.140625-3.355469-7.5-7.5-7.5h-25.632813c-13.269531 0-24.066406 10.796875-24.066406 24.066406v397.605469c0 13.269531 10.796875 24.066406 24.066406 24.066406h115.96875c13.269532 0 24.066406-10.796875 24.066406-24.066406v-4.070313l16.0625 8.566407v4.03125c0 4.140625 3.355469 7.5 7.5 7.5 4.140626 0 7.5-3.359375 7.5-7.5v-4.027344l23.5625-12.570313 23.5625 12.566407v4.027343c0 4.144532 3.355469 7.5 7.5 7.5 4.140626 0 7.5-3.355468 7.5-7.5v-4.023437l23.5625-12.570313 23.5625 12.566407v4.027343c0 4.144532 3.355469 7.5 7.5 7.5 4.140626 0 7.5-3.355468 7.5-7.5v-4.023437l23.5625-12.570313 23.5625 12.566407v4.03125c0 4.140625 3.355469 7.5 7.5 7.5 4.140626 0 7.5-3.359375 7.5-7.5v-4.027344l16.0625-8.566406v4.0625c0 13.269531 10.796876 24.066406 24.066407 24.066406h66.265625c13.269531 0 24.066406-10.796875 24.066406-24.066406v-397.601563c0-13.269531-10.796875-24.066406-24.066406-24.066406zm-423.234375 289.15625c0-.007812 0-.011719 0-.019531 0-.007813 0-.011719 0-.019531v-9.046876h34.703125v18.132813h-34.703125zm0-66.265625c0-.007813 0-.015625 0-.019531 0-.007813 0-.015625 0-.019532v-9.046874h34.703125v18.132812h-34.703125zm34.703125-57.222656h-34.703125v-9.046875c0-.007813 0-.011719 0-.019532 0-.003906 0-.011718 0-.015624v-9.050782h34.703125zm-42.203125 15h42.203125v18.136719h-42.203125c-4.140625 0-7.5 3.355468-7.5 7.5v9.066406h-34.699219v-51.269532h34.699219v9.066407c0 4.144531 3.359375 7.5 7.5 7.5zm-7.5 49.699219v9.070312c0 4.140625 3.359375 7.5 7.5 7.5h42.203125v18.132812h-42.203125c-4.140625 0-7.5 3.355469-7.5 7.5v9.066407h-34.699219v-51.269531zm0 66.269531v9.066406c0 4.144531 3.359375 7.5 7.5 7.5h42.203125v18.132813h-42.203125c-4.140625 0-7.5 3.359374-7.5 7.5v9.066406h-34.699219v-51.265625zm15 58.785156c0-.007813 0-.011719 0-.019531 0-.003906 0-.011719 0-.015625v-9.046875h34.703125v18.132812h-34.703125zm34.703125-256.019531h-34.703125v-9.046875c0-.007813 0-.011719 0-.019531 0-.007813 0-.011719 0-.019532v-9.046875h34.703125zm-42.203125 15h42.203125v18.132812h-42.203125c-4.140625 0-7.5 3.359375-7.5 7.5v9.066406h-34.699219v-51.265624h34.699219v9.066406c0 4.140625 3.359375 7.5 7.5 7.5zm-42.199219 283.199218v-34.699218h34.699219v9.066406c0 4.144531 3.359375 7.5 7.5 7.5h42.203125v18.132812zm84.402344-349.46875v18.136719h-42.203125c-4.140625 0-7.5 3.355469-7.5 7.5v9.066407h-34.699219v-34.703126zm313.199218 349.46875v-349.46875h84.398438v349.46875zm9.066407-382.601562h66.265625c5 0 9.066406 4.066406 9.066406 9.066406v9.066406h-84.398438v-9.066406c0-5 4.066407-9.066406 9.066407-9.066406zm-257.566407 385.601562v-355.222656l16.0625-8.566406v372.355469zm31.0625-363.789062 16.0625 8.566406v355.222656l-16.0625 8.570313zm31.0625 363.789062v-355.222656l16.0625-8.566406v372.355469zm31.0625-363.789062 16.0625 8.566406v355.222656l-16.0625 8.570313zm31.0625 363.789062v-355.222656l16.0625-8.566406v372.355469zm31.058594-363.789062 16.066406 8.566406v355.226563l-16.066406 8.566406zm31.066406 363.789062v-355.222656l16.0625-8.566406v372.355469zm31.058594-363.789062 16.066406 8.566406v355.226563l-16.066406 8.566406zm106.398438 393.921875h-66.265625c-5 0-9.066407-4.066406-9.066407-9.066406v-9.066407h84.398438v9.066407c0 5-4.066406 9.066406-9.066406 9.066406zm0 0"/><path d="m139.25 106.898438v-33.128907c0-4.140625-3.355469-7.5-7.5-7.5-4.140625 0-7.5 3.359375-7.5 7.5v33.128907c0 4.144531 3.359375 7.5 7.5 7.5 4.144531 0 7.5-3.355469 7.5-7.5zm0 0"/><path d="m120.109375 189.734375c0 4.144531 3.359375 7.5 7.5 7.5h8.28125c4.144531 0 7.5-3.355469 7.5-7.5 0-4.140625-3.355469-7.5-7.5-7.5h-8.28125c-4.140625 0-7.5 3.359375-7.5 7.5zm0 0"/><path d="m127.609375 230.367188h8.28125c4.144531 0 7.5-3.355469 7.5-7.5 0-4.140626-3.355469-7.5-7.5-7.5h-8.28125c-4.140625 0-7.5 3.359374-7.5 7.5 0 4.144531 3.359375 7.5 7.5 7.5zm0 0"/><path d="m127.609375 263.5h8.28125c4.144531 0 7.5-3.355469 7.5-7.5 0-4.140625-3.355469-7.5-7.5-7.5h-8.28125c-4.140625 0-7.5 3.359375-7.5 7.5 0 4.144531 3.359375 7.5 7.5 7.5zm0 0"/><path d="m127.609375 296.632812h8.28125c4.144531 0 7.5-3.355468 7.5-7.5 0-4.140624-3.355469-7.5-7.5-7.5h-8.28125c-4.140625 0-7.5 3.359376-7.5 7.5 0 4.144532 3.359375 7.5 7.5 7.5zm0 0"/><path d="m471.367188 66.269531h-33.132813c-4.144531 0-7.5 3.355469-7.5 7.5v33.132813c0 4.140625 3.355469 7.5 7.5 7.5h33.132813c4.144531 0 7.5-3.359375 7.5-7.5v-33.132813c0-4.144531-3.355469-7.5-7.5-7.5zm-7.5 33.132813h-18.132813v-18.132813h18.132813zm0 0"/><path d="m471.367188 331.332031h-33.132813c-4.144531 0-7.5 3.359375-7.5 7.5v33.132813c0 4.140625 3.355469 7.5 7.5 7.5h33.132813c4.144531 0 7.5-3.359375 7.5-7.5v-33.132813c0-4.140625-3.355469-7.5-7.5-7.5zm-7.5 33.132813h-18.132813v-18.132813h18.132813zm0 0"/><path d="m471.367188 198.925781h-33.132813c-4.144531 0-7.5 3.355469-7.5 7.5v33.132813c0 4.140625 3.355469 7.5 7.5 7.5h33.132813c4.144531 0 7.5-3.359375 7.5-7.5v-33.132813c0-4.144531-3.355469-7.5-7.5-7.5zm-7.5 33.132813h-18.132813v-18.132813h18.132813zm0 0"/></svg>