<?xml version="1.0"?>
<svg xmlns="http://www.w3.org/2000/svg" xmlns:xlink="http://www.w3.org/1999/xlink" xmlns:svgjs="http://svgjs.com/svgjs" version="1.1" width="512" height="512" x="0" y="0" viewBox="0 0 511.997 511.997" style="enable-background:new 0 0 512 512" xml:space="preserve" class=""><g><g xmlns="http://www.w3.org/2000/svg"><path d="m109.326 320.219-1.069 1.068c-1.998 1.999-4.655 3.1-7.482 3.1-2.826 0-5.483-1.101-7.482-3.1-9.976-9.975-26.205-9.972-36.179.001l-14.917 14.917c-2.929 2.929-2.929 7.678.001 10.606 1.464 1.465 3.384 2.197 5.303 2.197s3.839-.732 5.304-2.197l14.917-14.917c4.124-4.125 10.839-4.126 14.965 0 4.832 4.832 11.256 7.493 18.089 7.493 6.834 0 13.258-2.661 18.087-7.491l1.066-1.065c2.931-2.928 2.933-7.676.005-10.607-2.929-2.93-7.678-2.933-10.608-.005z" fill="#ff1e00" data-original="#000000" style="" class=""/><path d="m165.186 459.195c-2.929 2.929-2.929 7.678 0 10.607 1.465 1.464 3.385 2.197 5.304 2.197s3.839-.732 5.304-2.197l14.917-14.917c9.975-9.975 9.975-26.204 0-36.179-4.126-4.126-4.126-10.84 0-14.966l1.065-1.065c2.929-2.929 2.929-7.678 0-10.606-2.93-2.929-7.678-2.929-10.607 0l-1.065 1.065c-9.975 9.975-9.975 26.204 0 36.179 4.126 4.126 4.126 10.84 0 14.966z" fill="#ff1e00" data-original="#000000" style="" class=""/><path d="m511.969 67.388c.316-6.299-2.06-12.469-6.519-16.929l-43.911-43.912c-4.46-4.46-10.627-6.834-16.93-6.519-6.283.316-12.169 3.287-16.157 8.15l-5.045-5.045c-2.929-2.929-7.678-2.93-10.607 0-2.93 2.929-2.93 7.677-.001 10.606l6.115 6.115-6.062 7.421-6.794-6.794c-2.93-2.929-7.678-2.929-10.607 0s-2.929 7.678 0 10.607l7.864 7.864-6.062 7.422-8.543-8.543c-2.93-2.929-7.678-2.929-10.607 0s-2.929 7.678 0 10.606l9.614 9.614-2.824 3.457c-6.249 7.652-6.646 18.2-1.501 26.19l-84.021 84.021c-11.473-7.595-27.348-15.864-45.061-18.626-24.379-3.798-46.39 3.339-65.429 21.219-3.019 2.835-3.168 7.582-.332 10.601 2.837 3.02 7.581 3.168 10.602.332 15.494-14.553 33.268-20.386 52.849-17.332 13.889 2.166 26.694 8.455 36.524 14.653l-91.895 91.895c-11.533-.477-23.224 3.673-32.009 12.459-8.075 8.074-12.522 18.81-12.522 30.23 0 11.419 4.447 22.155 12.522 30.229 8.334 8.334 19.281 12.501 30.23 12.501 10.947 0 21.895-4.167 30.229-12.501h.001c8.074-8.075 12.521-18.811 12.521-30.229 0-.602-.019-1.201-.044-1.799l91.888-91.888c16.65 26.234 16.957 46.677 13.978 59.594-4.798 20.805-21.615 39.045-49.985 54.21-21.107 11.284-34.048 33.4-33.772 57.72.211 18.413-3.046 34.946-9.682 49.14-1.755 3.752-.135 8.216 3.617 9.971 1.028.48 2.108.708 3.172.708 2.821 0 5.525-1.601 6.799-4.326 7.598-16.252 11.33-34.98 11.094-55.663-.213-18.703 9.69-35.685 25.845-44.32 32.359-17.298 51.715-38.854 57.53-64.068 3.745-16.239 3.467-41.92-17.756-73.804l47.064-47.063c2.929-2.929 2.929-7.678 0-10.606-2.93-2.929-7.678-2.929-10.608 0l-6.294 6.294-19.694-19.695 42.875-42.875 19.694 19.694-13.469 13.469c-2.929 2.929-2.929 7.678 0 10.606 1.465 1.464 3.385 2.197 5.304 2.197s3.839-.732 5.304-2.197l13.836-13.837c3.656 2.356 7.845 3.558 12.052 3.558 4.986 0 9.993-1.673 14.144-5.063l3.457-2.824 9.613 9.614c1.465 1.464 3.385 2.197 5.304 2.197s3.839-.732 5.304-2.197c2.929-2.929 2.929-7.678 0-10.606l-8.544-8.544 7.422-6.062 7.863 7.864c1.465 1.465 3.384 2.197 5.304 2.197 1.919 0 3.839-.733 5.303-2.197 2.93-2.929 2.93-7.677.001-10.606l-6.794-6.795 7.422-6.062 6.114 6.114c1.465 1.465 3.384 2.197 5.304 2.197 1.919 0 3.839-.732 5.303-2.197 2.93-2.929 2.93-7.677.001-10.606l-5.046-5.046c4.859-3.991 7.829-9.877 8.145-16.16zm-248.49 200.824-19.694-19.694 42.875-42.875 19.694 19.694zm-49.009 68.562c-10.821 10.818-28.427 10.819-39.246 0-5.242-5.242-8.129-12.21-8.129-19.623s2.887-14.381 8.128-19.623c5.41-5.41 12.517-8.115 19.624-8.115 7.106 0 14.213 2.705 19.623 8.115 5.241 5.242 8.128 12.211 8.128 19.623s-2.887 14.381-8.128 19.623zm10.606-49.853c-3.447-3.447-7.346-6.17-11.502-8.191l19.605-19.605 19.694 19.694-19.589 19.589c-2.053-4.202-4.804-8.083-8.208-11.487zm134.76-115.066-42.875 42.875-19.694-19.694 42.875-42.875zm80.204-154.155c1.331-1.629 3.222-2.585 5.324-2.691.129-.006.257-.01.385-.01 1.958 0 3.786.757 5.183 2.154l43.912 43.913c1.489 1.489 2.251 3.466 2.145 5.568-.105 2.102-1.061 3.993-2.691 5.324l-53.295 43.529c-2.935 2.398-7.17 2.185-9.849-.495l-34.147-34.147c-2.68-2.68-2.893-6.914-.496-9.849z" fill="#ff1e00" data-original="#000000" style="" class=""/><path d="m450.304 47.61-27.725 27.726c-2.929 2.929-2.929 7.678 0 10.606 1.465 1.464 3.385 2.197 5.304 2.197s3.839-.732 5.304-2.197l27.726-27.726c2.929-2.929 2.929-7.678 0-10.606-2.931-2.928-7.679-2.928-10.609 0z" fill="#ff1e00" data-original="#000000" style="" class=""/><path d="m189.663 311.966c-2.863 2.863-2.863 7.505 0 10.368s7.505 2.863 10.368 0 2.863-7.505 0-10.368-7.505-2.863-10.368 0z" fill="#ff1e00" data-original="#000000" style="" class=""/><path d="m233.048 468.36c-45.216 45.215-105.667 36.628-165.853-23.559-31.361-31.361-48.773-62.433-51.753-92.355-2.685-26.955 7.065-52.37 28.194-73.499 22.432-22.432 52.299-26.84 73.373-26.615 24.351.306 46.437-12.664 57.72-33.772 1.936-3.623 3.948-7.101 5.979-10.334 2.202-3.508 1.143-8.138-2.365-10.34-3.51-2.203-8.138-1.143-10.34 2.365-2.214 3.528-4.401 7.308-6.502 11.237-8.636 16.155-25.584 26.095-44.32 25.845-23.936-.295-58.028 4.885-84.151 31.007-24.415 24.417-35.657 54.014-32.513 85.593 3.332 33.46 22.197 67.601 56.071 101.475 33.875 33.875 68.017 52.74 101.476 56.072 3.468.345 6.91.517 10.326.517 27.689 0 53.531-11.296 75.266-33.03 2.929-2.929 2.929-7.678 0-10.606-2.929-2.93-7.677-2.93-10.608-.001z" fill="#ff1e00" data-original="#000000" style="" class=""/></g></g></svg>
