<?xml version="1.0" encoding="iso-8859-1"?>
<!-- Generator: Adobe Illustrator 19.0.0, SVG Export Plug-In . SVG Version: 6.00 Build 0)  -->
<svg version="1.1" id="Capa_1" xmlns="http://www.w3.org/2000/svg" xmlns:xlink="http://www.w3.org/1999/xlink" x="0px" y="0px"
	 viewBox="0 0 511.999 511.999" style="enable-background:new 0 0 511.999 511.999;" xml:space="preserve">
<path d="M134.066,338.139c-2.63,0-5.21-1.06-7.07-2.93c-0.46-0.46-0.88-0.97-1.24-1.521c-0.36-0.54-0.67-1.12-0.92-1.72
	c-0.25-0.61-0.44-1.24-0.57-1.87c-0.13-0.649-0.2-1.31-0.2-1.96c0-0.649,0.07-1.31,0.2-1.95c0.13-0.64,0.32-1.27,0.57-1.87
	c0.25-0.609,0.56-1.189,0.92-1.729c0.36-0.55,0.78-1.06,1.24-1.521c2.32-2.319,5.77-3.39,9.03-2.729c0.63,0.13,1.26,0.32,1.87,0.57
	c0.6,0.25,1.18,0.56,1.72,0.92c0.55,0.359,1.06,0.779,1.52,1.239c0.46,0.461,0.88,0.971,1.25,1.521c0.36,0.54,0.67,1.12,0.92,1.729
	c0.25,0.601,0.44,1.23,0.57,1.87c0.13,0.641,0.19,1.301,0.19,1.95c0,0.65-0.06,1.311-0.19,1.96c-0.13,0.63-0.32,1.26-0.57,1.87
	c-0.25,0.6-0.56,1.18-0.92,1.72c-0.37,0.551-0.79,1.061-1.25,1.521c-0.46,0.46-0.97,0.88-1.52,1.25c-0.54,0.359-1.12,0.67-1.72,0.92
	c-0.61,0.25-1.24,0.439-1.87,0.57C135.376,338.079,134.716,338.139,134.066,338.139z"/>
<path style="fill:#C9774E;" d="M499.098,189.558c-10.026,27.558-92.071,127.346-243.097,127.346
	c-153.135,0-233.111-99.837-243.107-127.346c-4.818-13.244-3.598-29.598,3.419-36.955c8.246-8.606,22.14-14.934,41.353-8.917
	c42.842,13.384,52.478,19.112,64.023,21.541V87.493c0-26.308,10.066-48.57,28.308-62.664c18.342-14.144,42.572-18.252,68.211-11.545
	c7.607,2.379,28.278,8.246,37.655,8.246c9.386,0,30.057-5.867,37.235-8.136c25.889-6.887,50.069-2.889,68.431,11.215
	c18.392,14.134,28.517,36.464,28.517,62.883v77.793c11.425-2.399,21.071-8.107,64.293-21.601c19.192-6.007,33.116,0.31,41.343,8.917
	C502.696,159.959,503.926,176.313,499.098,189.558z"/>
<path style="fill:#AF5042;" d="M390.045,127.311v69.719l0,0c-85.295,38.168-182.807,38.204-268.132,0.1l-0.225-0.101v-69.718
	l0.225,0.101C207.236,165.514,304.75,165.477,390.045,127.311L390.045,127.311z"/>
<path d="M502.908,145.692c-12.947-13.544-31.74-17.753-51.553-11.553c-23.54,7.35-37.447,12.496-46.648,15.901
	c-1.693,0.626-3.237,1.197-4.664,1.718V87.493c0-29.596-11.515-54.745-32.425-70.814C346.754,0.654,319.375-3.944,290.524,3.73
	c-0.149,0.04-0.297,0.083-0.443,0.129c-9.788,3.094-27.433,7.672-34.22,7.672c-7.108,0-25.037-4.779-34.668-7.791
	c-0.15-0.047-0.302-0.091-0.454-0.131c-28.697-7.505-55.991-2.784-76.856,13.307c-20.76,16.04-32.193,41.105-32.193,70.577V151.7
	c-1.462-0.533-3.046-1.121-4.787-1.767c-9.148-3.393-22.973-8.52-46.247-15.791c-19.799-6.2-38.593-1.995-51.578,11.558
	c-10.825,11.349-11.001,32.373-5.582,47.272c5.584,15.366,29.239,49.022,71.523,78.754c35.798,25.171,96.254,55.178,180.983,55.178
	c46.729,0,86.227-9.356,118.27-21.999c-15.183,64.009-58.35,117.57-118.273,145.989c-41.35-19.598-74.846-51.067-97.056-91.248
	c-2.671-4.833-8.757-6.586-13.59-3.914s-6.586,8.756-3.914,13.59c22.211,40.182,54.76,72.386,94.765,93.961
	c-10.438,9.939-16.482,23.65-16.482,38.612c0,5.522,4.477,10,10,10s10-4.478,10-10c0-11.866,6.133-22.506,16.278-28.705
	c10.145,6.2,16.278,16.839,16.278,28.705c0,5.522,4.478,10,10,10c5.522,0,10-4.478,10-10c0-14.969-6.051-28.686-16.498-38.627
	c29.567-16.023,55.601-38.281,75.977-65.087c22.98-30.232,38.48-65.838,44.947-103.183c15.374-7.542,28.536-15.61,39.45-23.234
	c42.969-30.016,66.805-63.563,72.344-78.786C513.925,178.08,513.751,157.059,502.908,145.692z M131.688,142.362
	c79.705,31.418,168.655,31.414,248.356,0v48.114c-79.276,33.557-169.078,33.561-248.356,0L131.688,142.362L131.688,142.362z
	 M156.103,32.749c15.793-12.178,36.867-15.672,59.356-9.846c3.79,1.178,28.241,8.629,40.403,8.629
	c12.396,0,37.154-7.633,40.014-8.528c22.638-5.965,43.782-2.582,59.559,9.535c15.87,12.196,24.61,31.713,24.61,54.955v33.263
	c-79.274,33.558-169.077,33.56-248.356,0V87.493C131.688,64.355,140.361,44.911,156.103,32.749z M489.702,186.133
	c0,0.002-0.001,0.004-0.002,0.006c-3.791,10.42-24.667,41.052-65.003,69.229c-33.654,23.511-90.242,51.537-168.696,51.537
	c-79.499,0-136.044-28.026-169.479-51.538c-38.237-26.887-59.689-56.73-64.231-69.228c-3.815-10.488-2.483-22.712,1.241-26.616
	c3.931-4.103,10.189-8.222,19.474-8.222c3.459,0,7.34,0.572,11.676,1.931c22.78,7.117,35.774,11.937,45.263,15.455
	c4.584,1.7,8.298,3.078,11.742,4.185v24.158c0,3.944,2.319,7.521,5.92,9.13l0.227,0.102c43.868,19.59,90.946,29.383,138.031,29.383
	c47.166,0,94.335-9.83,138.263-29.486c3.599-1.61,5.915-5.186,5.915-9.128v-24.1c3.399-1.094,7.075-2.455,11.604-4.131
	c9.009-3.334,22.622-8.372,45.676-15.569c15.979-4.999,25.748,0.655,31.119,6.276C492.189,163.431,493.523,175.653,489.702,186.133z
	"/>
<path d="M385.005,247.01c-5.522,0-10.005-4.478-10.005-10s4.473-10,9.995-10h0.01c5.523,0,10,4.478,10,10
	S390.528,247.01,385.005,247.01z"/>
<path d="M256.047,273.39c-47.345,0-94.569-9.88-138.212-29.369l-0.227-0.102c-5.042-2.253-7.304-8.167-5.05-13.21
	c2.252-5.042,8.167-7.306,13.209-5.05l0.225,0.101c66.501,29.697,141.866,35.682,212.218,16.854
	c0.305-0.081,1.937-0.479,3.647-0.892c1.629-0.394,3.337-0.805,3.769-0.917c5.321-1.456,10.799,1.688,12.256,7.015
	c1.457,5.327-1.708,10.834-7.035,12.291c-0.336,0.092-2.362,0.586-4.292,1.052c-1.458,0.353-2.854,0.689-3.215,0.782
	C314.756,269.596,285.374,273.39,256.047,273.39z"/>
<g>
</g>
<g>
</g>
<g>
</g>
<g>
</g>
<g>
</g>
<g>
</g>
<g>
</g>
<g>
</g>
<g>
</g>
<g>
</g>
<g>
</g>
<g>
</g>
<g>
</g>
<g>
</g>
<g>
</g>
</svg>
