<svg id="Capa_1" enable-background="new 0 0 512 512" height="512" viewBox="0 0 512 512" width="512" xmlns="http://www.w3.org/2000/svg"><g><g><g><path d="m325.298 93.977c0-29.136-25.503-51.756-69.298-51.756-5.129 0-10.144-.676-15.001-.057-36.622 4.665-64.296 26.089-64.296 51.813z" fill="#f5e082"/><path d="m176.702 151.951c0 25.724 27.674 47.148 64.296 51.813 4.858.619 9.873-.057 15.001-.057 43.795 0 69.298-32.619 69.298-61.755z" fill="#f5e082"/><path d="m256 204.706c-5.13 0-10.141-.336-15-.955 36.62-4.666 64.298-26.077 64.298-51.8h30c0 29.136-35.503 52.755-79.298 52.755z" fill="#f5bb6c"/><path d="m256 41.222c-5.13 0-10.141.336-15 .955 36.62 4.666 64.298 26.078 64.298 51.8h30c0-29.136-35.503-52.755-79.298-52.755z" fill="#f5bb6c"/><path d="m380.871 81.063h-259.742c-7.132 0-12.914 5.782-12.914 12.914 0 7.132 5.782 12.914 12.914 12.914h259.742c7.132 0 12.914-5.782 12.914-12.914 0-7.132-5.782-12.914-12.914-12.914z" fill="#e9e9e9"/><path d="m380.871 139.037h-259.742c-7.132 0-12.914 5.782-12.914 12.914 0 7.132 5.782 12.914 12.914 12.914h259.742c7.132 0 12.914-5.782 12.914-12.914 0-7.132-5.782-12.914-12.914-12.914z" fill="#e9e9e9"/><path d="m390.871 81.063h-30c7.132 0 12.914 5.782 12.914 12.914s-5.782 12.914-12.914 12.914h30c7.132 0 12.914-5.782 12.914-12.914s-5.782-12.914-12.914-12.914z" fill="#d4d2d8"/><path d="m390.871 139.037h-30c7.132 0 12.914 5.782 12.914 12.914 0 7.132-5.782 12.914-12.914 12.914h30c7.132 0 12.914-5.782 12.914-12.914 0-7.132-5.782-12.914-12.914-12.914z" fill="#d4d2d8"/><path d="m270.741 287.094c0 8.693-6.047 14.741-14.741 14.741-1.749 0-3.432.715-5.004.188-6.24-2.091-10.736-7.984-10.736-14.928s4.496-12.838 10.736-14.928c1.572-.527 3.255.188 5.004.188 8.693-.001 14.741 6.046 14.741 14.739z" fill="#f5e082"/><path d="m256 271.354c-1.75 0-3.427.297-5 .824 6.239 2.091 10.741 7.973 10.741 14.916s-4.501 12.825-10.741 14.916c1.573.527 3.25.824 5 .824 8.693 0 15.741-7.047 15.741-15.741s-7.048-15.739-15.741-15.739z" fill="#f5bb6c"/></g></g><path d="m390.871 131.537h-41.623c-4.142 0-7.5 3.358-7.5 7.5s3.358 7.5 7.5 7.5h41.623c2.985 0 5.414 2.429 5.414 5.414s-2.429 5.414-5.414 5.414h-269.742c-2.985 0-5.414-2.429-5.414-5.414s2.429-5.414 5.414-5.414h195.433c4.143 0 7.5-3.358 7.5-7.5s-3.357-7.5-7.5-7.5h-53.062v-17.146h127.371c11.257 0 20.414-9.158 20.414-20.414s-9.157-20.414-20.414-20.414h-53.106c-11.311-22.079-40.422-37.602-74.265-39.617v-26.446c0-4.142-3.357-7.5-7.5-7.5s-7.5 3.358-7.5 7.5v26.441c-7.375.432-14.601 1.503-21.564 3.2-4.024.981-6.491 5.039-5.511 9.063.981 4.024 5.035 6.49 9.063 5.51 8.147-1.986 16.73-2.993 25.512-2.993 27.04 0 51.736 9.989 63.894 24.842h-127.791c2.91-3.561 6.567-6.902 10.896-9.91 3.401-2.363 4.243-7.037 1.88-10.438-2.362-3.401-7.035-4.242-10.439-1.88-9.032 6.275-15.921 13.886-20.194 22.228h-53.117c-11.257 0-20.414 9.158-20.414 20.414s9.157 20.414 20.414 20.414h127.371v17.146h-127.371c-11.257 0-20.414 9.158-20.414 20.414s9.157 20.414 20.414 20.414h53.117c4.559 8.91 12.077 16.949 22.027 23.463 1.267.83 2.692 1.226 4.101 1.226 2.445 0 4.843-1.194 6.281-3.393 2.27-3.465 1.299-8.114-2.166-10.383-4.992-3.268-9.159-6.951-12.395-10.914h127.8c-12.158 14.852-36.855 24.842-63.894 24.842-8.044 0-15.943-.848-23.481-2.521-4.052-.897-8.05 1.654-8.947 5.697-.898 4.044 1.653 8.049 5.697 8.947 6.236 1.384 12.679 2.266 19.231 2.651v53.123c-9.144 3.128-15.74 11.801-15.74 21.992s6.596 18.864 15.74 21.992v72.454l-108.311 117.885c-2.803 3.05-2.602 7.794.448 10.597 3.05 2.801 7.794 2.601 10.597-.449l97.266-105.864v60.754c0 4.142 3.357 7.5 7.5 7.5s7.5-3.358 7.5-7.5v-60.754l97.267 105.864c1.478 1.61 3.498 2.426 5.524 2.426 1.814 0 3.632-.654 5.072-1.977 3.05-2.803 3.251-7.547.448-10.597l-108.311-117.886v-72.454c9.144-3.128 15.74-11.801 15.74-21.992s-6.596-18.864-15.74-21.992v-53.121c33.844-2.015 62.955-17.538 74.266-39.617h53.105c11.257 0 20.414-9.158 20.414-20.414 0-11.255-9.157-20.413-20.414-20.413zm0-42.973c2.985 0 5.414 2.429 5.414 5.414s-2.429 5.414-5.414 5.414h-269.742c-2.985 0-5.414-2.429-5.414-5.414s2.429-5.414 5.414-5.414zm-134.871 206.771c-4.544 0-8.24-3.697-8.24-8.241s3.696-8.241 8.24-8.241 8.24 3.697 8.24 8.241-3.696 8.241-8.24 8.241z"/></g></svg>