<svg height="512pt" viewBox="0 0 512 512" width="512pt" xmlns="http://www.w3.org/2000/svg"><path d="m476.503906 312.261719v189.378906h-148v-171.582031zm0 0" fill="#ffddcf"/><path d="m371.878906 143.703125c0-11.976563 9.710938-21.6875 21.6875-21.6875 11.976563 0 21.6875 9.710937 21.6875 21.6875 0-11.976563 9.710938-21.6875 21.6875-21.6875 11.976563 0 21.6875 9.710937 21.6875 21.6875v-56.484375c0-11.976562 9.707032-21.6875 21.683594-21.6875s21.6875 9.710938 21.6875 21.6875v159.269531c0 53.898438-43.695312 97.59375-97.59375 97.59375h-23.699219c-41.210937 0-77.984375-25.890625-91.878906-64.6875l-31.316406-87.4375c-4.429688-12.367187 1.171875-26.085937 12.992187-31.8125 11.917969-5.78125 26.277344-1.5625 33.175782 9.746094l24.828124 40.6875v-178.890625c0-11.976562 9.710938-21.6875 21.6875-21.6875 11.976563 0 21.6875 9.710938 21.6875 21.6875v112.015625zm0 0" fill="#ffddcf"/><path d="m35.496094 501.640625v-53.714844c-15.835938-17.351562-25.496094-40.433593-25.496094-65.773437v-159.269532c0-11.976562 9.710938-21.6875 21.6875-21.6875s21.6875 9.710938 21.6875 21.6875v56.484376c0-11.976563 9.710938-21.6875 21.6875-21.6875s21.683594 9.710937 21.683594 21.6875v66.875-66.875c0-11.976563 9.710937-21.6875 21.6875-21.6875 11.976562 0 21.6875 9.710937 21.6875 21.6875v-112.015626c0-11.976562 9.710937-21.6875 21.6875-21.6875 11.976562 0 21.6875 9.710938 21.6875 21.6875v178.890626l24.828125-40.691407c6.898437-11.304687 21.257812-15.523437 33.175781-9.746093 11.816406 5.730468 17.421875 19.449218 12.992188 31.8125l-31.316407 87.441406c-7.511719 20.96875-21.710937 38.15625-39.679687 49.535156v37.046875" fill="#ffbf9e"/><path d="m512 87.21875c0-17.472656-14.214844-31.6875-31.6875-31.6875s-31.6875 14.214844-31.6875 31.6875v27.039062c-3.617188-1.441406-7.558594-2.242187-11.6875-2.242187-8.382812 0-16.011719 3.28125-21.6875 8.617187-5.671875-5.335937-13.300781-8.617187-21.6875-8.617187-4.125 0-8.066406.800781-11.6875 2.242187v-82.570312c0-17.472656-14.214844-31.6875-31.6875-31.6875s-31.6875 14.214844-31.6875 31.6875v143.304688l-6.289062-10.3125c-9.632813-15.785157-29.441407-21.605469-46.074219-13.535157-16.449219 7.972657-24.207031 26.96875-18.042969 44.179688l31.3125 87.441406c7.613281 21.246094 21.355469 39.0625 39.09375 51.59375v167.28125c0 5.523437 4.480469 10 10 10 5.523438 0 10-4.476563 10-10v-156.152344c5.996094 2.539063 12.269531 4.566407 18.777344 6.019531.730468.164063 1.460937.238282 2.183594.238282 4.582031 0 8.714843-3.167969 9.753906-7.824219 1.199218-5.390625-2.195313-10.734375-7.585938-11.9375-29.5-6.578125-53.195312-27.496094-63.394531-55.964844l-31.3125-87.4375c-2.710937-7.574219.699219-15.933593 7.941406-19.441406 7.320313-3.550781 16.035157-.988281 20.273438 5.957031l24.828125 40.6875c1.265625 2.078125 3.246094 3.621094 5.566406 4.34375l15.8125 4.917969c16.542969 5.144531 27.65625 20.238281 27.65625 37.558594 0 5.523437 4.476562 10 10 10s10-4.476563 10-10c0-26.128907-16.761719-48.894531-41.710938-56.65625l-8.785156-2.730469v-171.53125c0-6.445312 5.242188-11.6875 11.6875-11.6875 6.445313 0 11.6875 5.242188 11.6875 11.6875v153.113281c0 17.472657 14.214844 31.6875 31.6875 31.6875 8.386719 0 16.015625-3.28125 21.6875-8.617187 5.675782 5.335937 13.304688 8.617187 21.6875 8.617187 17.472656 0 31.6875-14.214843 31.6875-31.6875v-97.582031c0-6.441406 5.242188-11.6875 11.6875-11.6875 6.445313 0 11.683594 5.246094 11.683594 11.6875v159.269531c0 22.039063-8.105469 42.628907-22.210938 58.378907-.453124.414062-.867187.867187-1.242187 1.355468-6.972656 7.464844-15.324219 13.785156-24.832031 18.566406-4.9375 2.484376-6.921875 8.496094-4.441406 13.429688 1.757812 3.492188 5.28125 5.507812 8.941406 5.507812 1.511718 0 3.046875-.34375 4.484375-1.070312 4.855469-2.441406 9.460937-5.21875 13.804687-8.277344v167.261719c0 5.523437 4.480469 10 10 10 5.523438 0 10-4.476563 10-10v-185.5c16.21875-19.066406 25.496094-43.527344 25.496094-69.652344zm-118.433594 109.269531c-6.445312 0-11.6875-5.246093-11.6875-11.6875v-41.097656c0-6.445313 5.242188-11.6875 11.6875-11.6875 6.445313 0 11.6875 5.242187 11.6875 11.6875v41.097656c0 6.441407-5.242187 11.6875-11.6875 11.6875zm55.058594-11.6875c0 6.441407-5.242188 11.6875-11.6875 11.6875s-11.683594-5.246093-11.683594-11.6875v-41.097656c0-6.445313 5.238282-11.6875 11.683594-11.6875s11.6875 5.242187 11.6875 11.6875zm0 0"/><path d="m245.859375 286.808594c-16.632813-8.066406-36.441406-2.246094-46.074219 13.535156l-6.289062 10.3125v-143.304688c0-17.472656-14.214844-31.6875-31.6875-31.6875s-31.6875 14.214844-31.6875 31.6875v82.574219c-3.621094-1.445312-7.5625-2.246093-11.6875-2.246093-8.386719 0-16.015625 3.28125-21.6875 8.617187-5.675782-5.335937-13.304688-8.617187-21.6875-8.617187-4.128906 0-8.070313.800781-11.6875 2.246093v-27.039062c0-17.472657-14.214844-31.6875-31.6875-31.6875-17.46875-.003907-31.683594 14.210937-31.683594 31.683593v159.269532c0 25.578125 9.023438 50.117187 25.496094 69.542968v49.945313c0 5.523437 4.476562 10 10 10 5.519531 0 10-4.476563 10-10v-53.714844c0-2.496093-.933594-4.902343-2.613282-6.742187-14.757812-16.167969-22.882812-37.132813-22.882812-59.03125v-159.269532c0-6.441406 5.242188-11.6875 11.6875-11.6875s11.6875 5.246094 11.6875 11.6875v123.359376c0 5.523437 4.476562 10 10 10s10-4.476563 10-10v-66.875c0-6.445313 5.242188-11.6875 11.6875-11.6875s11.6875 5.242187 11.6875 11.6875v66.875c0 5.523437 4.476562 10 10 10 5.519531 0 10-4.476563 10-10v-66.875c0-6.445313 5.242188-11.6875 11.6875-11.6875s11.6875 5.242187 11.6875 11.6875v66.875c0 5.523437 4.476562 10 10 10 5.519531 0 10-4.476563 10-10v-178.890626c0-6.445312 5.242188-11.6875 11.6875-11.6875s11.6875 5.242188 11.6875 11.6875v178.890626c0 5.523437 4.476562 10 10 10 3.613281 0 6.769531-1.921876 8.523438-4.792969.003906 0 .007812.003906.011718.003906l24.828125-40.691406c4.234375-6.945313 12.953125-9.507813 20.273438-5.957031 7.242187 3.511718 10.652343 11.871093 7.941406 19.445312l-31.316406 87.4375c-6.542969 18.269531-19.191407 34.058594-35.613281 44.460938-2.894532 1.832031-4.648438 5.019531-4.648438 8.449218v37.042969c0 5.523437 4.476562 10 10 10 5.519531 0 10-4.476563 10-10v-31.714844c17.90625-12.710937 31.683594-30.808593 39.09375-51.496093l31.3125-87.4375c6.160156-17.210938-1.59375-36.207032-18.046875-44.183594zm0 0"/><path d="m404.398438 334.082031c-2.628907 0-5.210938 1.070313-7.070313 2.929688s-2.929687 4.4375-2.929687 7.070312c0 2.628907 1.070312 5.207031 2.929687 7.070313 1.871094 1.859375 4.441406 2.929687 7.070313 2.929687 2.628906 0 5.210937-1.070312 7.082031-2.929687 1.859375-1.863282 2.917969-4.441406 2.917969-7.070313 0-2.632812-1.058594-5.210937-2.917969-7.070312-1.871094-1.859375-4.441407-2.929688-7.082031-2.929688zm0 0"/></svg>