<?xml version="1.0" encoding="iso-8859-1"?>
<!-- Generator: Adobe Illustrator 19.0.0, SVG Export Plug-In . SVG Version: 6.00 Build 0)  -->
<svg version="1.1" id="Capa_1" xmlns="http://www.w3.org/2000/svg" xmlns:xlink="http://www.w3.org/1999/xlink" x="0px" y="0px"
	 viewBox="0 0 511.999 511.999" style="enable-background:new 0 0 511.999 511.999;" xml:space="preserve">
<path style="fill:#9C6A53;" d="M423.31,504.399H88.689c-7.289,0-13.197-5.908-13.197-13.197V20.798
	c0-7.289,5.908-13.197,13.197-13.197h334.62c7.289,0,13.197,5.908,13.197,13.197v470.403
	C436.507,498.491,430.599,504.399,423.31,504.399z"/>
<path style="fill:#865B47;" d="M436.503,20.797v470.409c0,7.287-5.908,13.195-13.195,13.195H88.69
	c-7.287,0-13.195-5.908-13.195-13.195v-20.309h314.309c7.287,0,13.195-5.908,13.195-13.195V7.602h20.309
	C430.596,7.602,436.503,13.51,436.503,20.797z"/>
<circle style="fill:#7B5341;" cx="255.995" cy="401.688" r="49.59"/>
<path style="fill:#FFEA06;" d="M384.737,123.392H127.262c-8.034,0-14.546-6.512-14.546-14.546v-8.049
	c0-8.034,6.512-14.546,14.546-14.546h257.473c8.034,0,14.546,6.512,14.546,14.546v8.049
	C399.282,116.879,392.77,123.392,384.737,123.392z"/>
<path style="fill:#E3D000;" d="M399.279,100.798v8.047c0,8.037-6.506,14.543-14.543,14.543H127.261
	c-8.037,0-14.543-6.506-14.543-14.543v-0.74H368.43c8.037,0,14.553-6.516,14.553-14.553v-7.297h1.753
	C392.773,86.255,399.279,92.761,399.279,100.798z"/>
<path style="fill:#634539;" d="M305.587,401.689c0,27.393-22.205,49.588-49.588,49.588c-22.498,0-41.5-14.979-47.561-35.521
	c4.459,1.317,9.172,2.027,14.056,2.027c27.393,0,49.588-22.205,49.588-49.598c0-4.885-0.709-9.597-2.017-14.056
	C290.599,360.188,305.587,379.19,305.587,401.689z"/>
<path d="M436.507,392.307c-4.199,0-7.601,3.403-7.601,7.601v91.294c0,3.086-2.511,5.596-5.596,5.596H88.69
	c-3.086,0-5.596-2.511-5.596-5.596V86.479c0-4.198-3.402-7.601-7.601-7.601c-4.199,0-7.601,3.403-7.601,7.601v404.722
	c0,11.468,9.33,20.798,20.798,20.798h334.62c11.468,0,20.798-9.331,20.798-20.798v-91.294
	C444.108,395.71,440.705,392.307,436.507,392.307z"/>
<path d="M423.309,0H88.69C77.221,0,67.891,9.331,67.891,20.798v35.278c0,4.198,3.402,7.601,7.601,7.601
	c4.199,0,7.601-3.403,7.601-7.601V20.798c0-3.086,2.511-5.596,5.596-5.596h334.62c3.086,0,5.596,2.511,5.596,5.596v348.706
	c0,4.198,3.402,7.601,7.601,7.601c4.199,0,7.601-3.403,7.601-7.601V20.798C444.108,9.331,434.778,0,423.309,0z"/>
<path d="M207.758,387.874c-4.171-0.53-7.969,2.421-8.496,6.586c-4.348,34.284,22.479,64.422,56.737,64.422
	c31.535,0,57.192-25.655,57.192-57.192c0-52.034-64.36-76.965-99.433-38.553c-2.831,3.1-2.613,7.907,0.486,10.738
	c3.101,2.831,7.908,2.612,10.738-0.487c25.765-28.213,73.006-9.887,73.006,28.303c0,23.153-18.837,41.99-41.99,41.99
	c-25.188,0-44.845-22.154-41.657-47.313C214.87,392.204,211.922,388.401,207.758,387.874z"/>
<path d="M112.717,165.222c-4.199,0-7.601,3.403-7.601,7.601s3.402,7.601,7.601,7.601h18.488v48.854c0,4.198,3.402,7.601,7.601,7.601
	s7.601-3.403,7.601-7.601v-48.854h24.058v70.856c0,4.198,3.402,7.601,7.601,7.601c4.199,0,7.601-3.403,7.601-7.601v-70.856h24.059
	v92.857c0,4.198,3.402,7.601,7.601,7.601c4.199,0,7.601-3.403,7.601-7.601v-92.857h24.054v120.189c0,4.198,3.402,7.601,7.601,7.601
	s7.601-3.403,7.601-7.601V180.424h24.064v98.32c0,4.198,3.402,7.601,7.601,7.601s7.601-3.403,7.601-7.601v-98.32h24.048v76.317
	c0,4.198,3.402,7.601,7.601,7.601s7.601-3.403,7.601-7.601v-76.317h24.059v54.315c0,4.198,3.402,7.601,7.601,7.601
	c4.199,0,7.601-3.403,7.601-7.601v-54.315h17.323c4.199,0,7.601-3.403,7.601-7.601s-3.402-7.601-7.601-7.601h-17.323v-34.229h2.776
	c12.212,0,22.148-9.935,22.148-22.148v-8.049c0-12.212-9.936-22.148-22.148-22.148h-2.776V45.028c0-4.198-3.402-7.601-7.601-7.601
	c-4.199,0-7.601,3.403-7.601,7.601V78.65h-24.059V45.028c0-4.198-3.402-7.601-7.601-7.601s-7.601,3.403-7.601,7.601V78.65h-24.048
	V45.028c0-4.198-3.402-7.601-7.601-7.601s-7.601,3.403-7.601,7.601V78.65h-24.063V45.033c0-4.198-3.402-7.601-7.601-7.601
	s-7.601,3.403-7.601,7.601V78.65h-24.054V45.028c0-4.198-3.402-7.601-7.601-7.601c-4.199,0-7.601,3.403-7.601,7.601V78.65h-24.059
	V45.028c0-4.198-3.402-7.601-7.601-7.601c-4.199,0-7.601,3.403-7.601,7.601V78.65h-24.058V45.028c0-4.198-3.402-7.601-7.601-7.601
	s-7.601,3.403-7.601,7.601V78.65h-3.942c-12.212,0-22.148,9.935-22.148,22.148v8.048c0,12.212,9.936,22.148,22.148,22.148h3.942
	v34.229H112.717z M381.961,93.852h2.776c3.83,0,6.946,3.116,6.946,6.946v8.048c0,3.83-3.115,6.946-6.946,6.946h-2.776V93.852z
	 M342.699,93.852h24.059v21.939h-24.059V93.852z M342.699,130.992h24.059v34.229h-24.059V130.992z M303.449,93.852h24.048v21.939
	h-24.048V93.852z M303.449,130.992h24.048v34.229h-24.048V130.992z M264.184,93.852h24.064v21.939h-24.064V93.852z M264.184,130.992
	h24.064v34.229h-24.064V130.992z M224.927,93.852h24.054v21.939h-24.054V93.852z M224.927,130.992h24.054v34.229h-24.054V130.992z
	 M185.666,93.852h24.059v21.939h-24.059V93.852z M185.666,130.992h24.059v34.229h-24.059V130.992z M146.406,93.852h24.058v21.939
	h-24.058V93.852z M146.406,130.992h24.058v34.229h-24.058V130.992z M127.262,115.791c-3.83,0-6.946-3.116-6.946-6.946v-8.048
	c0-3.83,3.115-6.946,6.946-6.946h3.942v21.939h-3.942V115.791z"/>
<g>
</g>
<g>
</g>
<g>
</g>
<g>
</g>
<g>
</g>
<g>
</g>
<g>
</g>
<g>
</g>
<g>
</g>
<g>
</g>
<g>
</g>
<g>
</g>
<g>
</g>
<g>
</g>
<g>
</g>
</svg>
