<?xml version="1.0" encoding="iso-8859-1"?>
<!-- Generator: Adobe Illustrator 19.0.0, SVG Export Plug-In . SVG Version: 6.00 Build 0)  -->
<svg version="1.1" id="Capa_1" xmlns="http://www.w3.org/2000/svg" xmlns:xlink="http://www.w3.org/1999/xlink" x="0px" y="0px"
	 viewBox="0 0 511.999 511.999" style="enable-background:new 0 0 511.999 511.999;" xml:space="preserve">
<path style="fill:#DD8D19;" d="M343.123,191.379c25.426,33.67,29.974,77.99,4.879,103.085
	c-10.605,10.605-20.07,17.353-29.558,21.931c-4.44,2.605-12.499,8.661-17.169,20.054c-1.617,3.929-7.111,4.106-8.656,0.288
	c-0.289-0.688-0.473-1.147-0.569-1.243c-0.887-2.236-2.236-4.01-4.062-5.236c-9.656-6.458-29.065,5.012-43.356,25.62
	c-14.279,20.597-18.05,42.532-8.406,48.979c1.141,0.766,4.873,2.374,8.557,3.886c2.598,1.073,2.922,4.372,1.087,6.208
	c-0.362,0.362-0.809,0.665-1.338,0.885c-10.644,4.47-19.133,13.269-22.902,24.165c-6.267,18.091-15.236,33.854-25.867,44.484
	c-36.437,36.437-99.013,19.203-143.317-25.1C8.133,415.069-9.101,352.492,27.336,316.056c10.63-10.63,26.394-19.599,44.496-25.854
	c5.768-2.002,10.944-5.319,15.204-9.578c3.797-3.797,6.843-8.321,8.949-13.336c1.344-3.203,5.812-3.356,7.094-0.251
	c1.511,3.685,3.131,7.429,3.886,8.557c6.458,9.656,28.395,5.885,48.979-8.406c20.609-14.292,32.079-33.7,25.632-43.344
	c-1.238-1.838-3.012-3.186-5.236-4.062c-0.095-0.095-0.567-0.292-1.255-0.581c-3.818-1.545-3.641-7.039,0.288-8.656
	c11.405-4.659,17.449-12.73,20.066-17.158c4.566-9.5,11.313-18.966,21.918-29.57c25.107-25.107,69.428-20.559,103.109,4.879"/>
<g>
	<polyline style="fill:#A56247;" points="479.407,46.717 255.255,287.164 224.659,256.568 465.106,32.418 	"/>
	<path style="fill:#A56247;" d="M502.605,16.568l-7.349-7.349c-1.663-1.663-4.27-1.921-6.226-0.614l-23.623,15.768
		c-2.588,1.727-2.95,5.39-0.749,7.59l15.204,15.204c2.2,2.2,5.863,1.839,7.59-0.749l15.768-23.623
		C504.526,20.838,504.269,18.232,502.605,16.568z"/>
</g>
<g>
	<circle style="fill:#455256;" cx="488.715" cy="85.299" r="15.712"/>
	<circle style="fill:#455256;" cx="423.81" cy="25.831" r="15.712"/>
	<circle style="fill:#455256;" cx="386.173" cy="63.465" r="15.712"/>
	<circle style="fill:#455256;" cx="451.088" cy="122.926" r="15.712"/>
</g>
<polyline style="fill:#A56247;" points="62.625,469.441 106.129,425.937 162.222,396.404 115.42,349.603 85.887,405.696 
	42.383,449.2 "/>
<path d="M202.661,358.793c-4.729,7.531-2.448,17.505,5.083,22.233c1.256,0.789,2.654,1.165,4.035,1.165
	c2.528,0,5.002-1.261,6.445-3.561c2.233-3.556,1.161-8.249-2.395-10.481c-0.216-0.136-0.354-0.328-0.41-0.576
	c-0.057-0.246-0.017-0.48,0.119-0.695l24.62-39.226c2.291-3.648,3.023-7.969,2.063-12.17c-0.96-4.2-3.499-7.773-7.147-10.063
	c-3.558-2.231-8.25-1.158-10.481,2.397c-2.232,3.557-1.159,8.249,2.397,10.481c0.215,0.135,0.353,0.327,0.409,0.574
	c0.056,0.246,0.017,0.48-0.119,0.695L202.661,358.793z"/>
<path d="M196.338,269.598c-4.199-0.963-8.521-0.23-12.169,2.061l-39.228,24.623c-0.214,0.135-0.446,0.172-0.695,0.118
	c-0.246-0.057-0.44-0.194-0.574-0.409c-2.233-3.557-6.923-4.628-10.481-2.397c-3.556,2.232-4.629,6.924-2.397,10.481
	c2.29,3.648,5.863,6.187,10.064,7.147c1.204,0.275,2.42,0.412,3.626,0.412c2.998,0,5.942-0.841,8.543-2.473l39.227-24.622
	c0.215-0.135,0.449-0.175,0.694-0.118c0.247,0.057,0.441,0.194,0.575,0.409c2.233,3.557,6.923,4.628,10.481,2.397
	c3.556-2.232,4.629-6.924,2.397-10.481C204.111,273.097,200.538,270.559,196.338,269.598z"/>
<path d="M504.38,68.03c-5.11-4.609-11.772-6.705-18.518-5.869c-3.28,0.403-6.362,1.491-9.114,3.139l-2.211-2.211l6.6-7.079
	c0.722,0.129,1.456,0.204,2.199,0.204c1.184,0,2.377-0.162,3.601-0.533c2.915-0.883,5.382-2.86,7.073-5.394l15.535-23.273
	c3.308-4.956,2.65-11.609-1.562-15.822c-0.001,0-0.001,0-0.001,0l-7.348-7.347c-4.213-4.216-10.867-4.875-15.823-1.564
	l-23.623,15.768c-3.134,2.092-5.144,5.443-5.514,9.194c-0.115,1.163-0.049,2.314,0.15,3.435l-7.089,6.608l-3.145-3.145
	c3.546-9.311,0.817-20.247-7.437-26.689c-10.133-7.911-24.813-6.101-32.723,4.034c-7.91,10.134-6.1,24.813,4.033,32.722
	c4.14,3.232,9.13,4.94,14.298,4.94c0.961,0,1.93-0.06,2.899-0.179c3.28-0.403,6.362-1.491,9.114-3.139l1.831,1.831l-27.821,25.934
	l-1.825-1.825c4.125-10.83-0.237-23.854-11.908-29.454c-2.469-1.185-5.156-1.905-7.887-2.108
	c-8.961-0.667-17.135,3.503-21.804,10.965c-2.246,3.589-3.473,7.767-3.501,12.002c-0.049,7.436,3.249,14.194,8.975,18.663
	c4.251,3.319,9.303,4.926,14.32,4.926c4.184,0,8.341-1.127,11.991-3.306l0.511,0.511l-79.735,74.332
	c-16.422-10.894-34.896-17.446-52.739-18.586c-12.007-0.77-23.308,0.971-33.293,4.995l-73.419-73.419
	c-12.052-12.05-31.241-12.707-44.08-1.989l-1.041-1.041c-2.944-2.944-7.779-3.242-10.809-0.386
	c-3.135,2.954-3.191,7.89-0.167,10.915l95.095,95.095c-3.894,5.226-7.093,10.462-9.727,15.892
	c-2.203,3.64-7.138,10.011-16.26,13.738c-4.731,1.946-7.778,6.492-7.762,11.582c0.015,4.933,2.965,9.311,7.435,11.118
	c0.174,0.073,0.328,0.138,0.459,0.193c0.303,0.17,0.617,0.319,0.943,0.447c1.078,0.424,1.495,0.908,1.7,1.212
	c2.653,3.968-4.309,19.462-23.648,32.874c-14.65,10.171-28.073,13.421-34.883,12.135c-1.177-0.223-2.712-0.69-3.399-1.65
	c-0.148-0.265-0.973-1.814-3.219-7.29c-1.735-4.206-5.808-6.932-10.378-6.946c-4.678-0.044-8.925,2.796-10.751,7.151
	c-1.725,4.105-4.187,7.774-7.318,10.904c-3.502,3.503-7.763,6.19-12.312,7.769c-2.428,0.839-4.825,1.729-7.175,2.663
	c-4.061,1.614-5.966,6.275-4.148,10.247l0.002,0.005c1.687,3.685,5.958,5.389,9.724,3.891c2.149-0.854,4.344-1.668,6.573-2.439
	c6.714-2.33,12.969-6.267,18.088-11.384c2.625-2.625,4.924-5.511,6.88-8.628c0.748,1.543,1.117,2.094,1.353,2.45
	c2.85,4.259,7.431,7.094,13.25,8.196c12.299,2.323,30.071-3.26,46.381-14.582c24.771-17.178,36.645-40.314,27.603-53.84
	c-1.189-1.764-2.654-3.274-4.377-4.518c10.119-5.574,15.825-13.322,18.486-17.826c0.11-0.21,0.218-0.411,0.328-0.619
	c1.934-4.016,4.253-7.934,7.037-11.859l39.163,39.164l-28.941,26.979c-0.792,0.738-1.467,1.61-1.891,2.605
	c-1.273,2.99-0.546,6.28,1.599,8.426l30.598,30.596c1.435,1.435,3.387,2.231,5.417,2.226c0.03,0,0.062,0,0.092-0.001
	c2.062-0.036,4.021-0.908,5.427-2.418l27.073-29.04l39.162,39.162c-3.93,2.79-7.855,5.118-11.878,7.061
	c-0.193,0.101-0.376,0.2-0.569,0.301c-4.504,2.643-12.258,8.327-17.857,18.489c-1.248-1.729-2.762-3.195-4.531-4.384
	c-13.51-9.035-36.651,2.834-53.829,27.608c-11.323,16.33-16.906,34.113-14.571,46.406c1.103,5.807,3.934,10.381,8.174,13.216
	c0.5,0.335,1.186,0.742,2.461,1.363c-9.316,5.841-16.423,14.634-20.002,24.981c-5.995,17.303-14.539,32.077-24.058,41.597
	c-19.445,19.447-44.342,19.245-61.802,15.656c-18.32-3.767-37.077-12.891-54.301-26.232l36.404-36.405l55.071-28.994
	c2.137-1.125,3.613-3.2,3.975-5.588c0.362-2.388-0.433-4.807-2.14-6.516l-46.802-46.802c-1.708-1.709-4.125-2.501-6.516-2.14
	c-2.387,0.361-4.462,1.838-5.588,3.975l-28.996,55.073l-36.404,36.404c-13.344-17.226-22.469-35.984-26.237-54.304
	c-3.591-17.461-3.79-42.358,15.655-61.803c2.025-2.025,4.29-4.013,6.77-5.942c3.126-2.432,3.843-6.869,1.659-10.173l0,0
	c-2.45-3.707-7.54-4.519-11.045-1.788c-2.96,2.306-5.682,4.697-8.136,7.151C3.054,329.586-3.977,356.441,2.164,386.296
	c5.601,27.24,21.551,55.106,44.909,78.463c23.353,23.353,51.214,39.299,78.453,44.899c7.04,1.448,13.911,2.163,20.553,2.162
	c21.522-0.001,40.614-7.513,55.062-21.961c11.274-11.275,20.844-27.656,27.675-47.374c3.036-8.776,9.837-15.936,18.63-19.627
	c1.44-0.598,2.719-1.45,3.801-2.531c2.739-2.74,3.923-6.643,3.167-10.439c-0.735-3.681-3.249-6.736-6.744-8.178
	c-5.515-2.262-6.995-3.053-7.266-3.206c-0.961-0.682-1.428-2.214-1.652-3.388c-1.291-6.804,1.957-20.236,12.128-34.906
	c13.409-19.336,28.909-26.29,32.869-23.642c0.186,0.124,0.748,0.503,1.235,1.728c0.12,0.302,0.258,0.595,0.416,0.879
	c0.034,0.083,0.074,0.177,0.117,0.28l0.056,0.132c1.841,4.55,6.219,7.5,11.152,7.515c0.013,0,0.024,0,0.038,0
	c5.074,0,9.602-3.043,11.548-7.77c3.755-9.158,10.116-14.062,13.739-16.238c5.431-2.644,10.665-5.847,15.888-9.74l142.258,142.259
	c1.485,1.484,3.43,2.226,5.376,2.226c1.945,0,3.891-0.742,5.376-2.226c2.969-2.97,2.969-7.783,0-10.752l-25.466-25.466
	l15.669-15.669c2.969-2.97,2.969-7.783,0-10.752L367.105,278.928c4.019-9.979,5.758-21.276,4.989-33.277
	c-1.14-17.843-7.693-36.316-18.584-52.735l14.906-15.989c2.863-3.071,2.694-7.881-0.377-10.744l-0.001-0.001
	c-3.071-2.863-7.881-2.694-10.744,0.377l-49.481,53.078l-15.626-15.626L464.924,42.981l3.918,3.918l-88.551,94.99
	c-2.863,3.071-2.694,7.881,0.377,10.744l0.001,0.001c3.071,2.863,7.881,2.694,10.744-0.377l36.438-39.088l1.451,1.451
	c-3.547,9.311-0.818,20.245,7.437,26.689c4.251,3.319,9.302,4.925,14.319,4.925c7.494,0,14.91-3.588,19.459-10.423
	c6.329-9.51,4.709-22.508-3.775-30.156c-5.109-4.606-11.768-6.7-18.511-5.863c-3.28,0.403-6.362,1.491-9.114,3.139l-0.89-0.89
	l25.934-27.821l2.77,2.77c-3.546,9.311-0.817,20.247,7.437,26.689c4.251,3.319,9.302,4.925,14.319,4.925
	c7.493,0,14.908-3.587,19.457-10.42C514.476,88.676,512.861,75.68,504.38,68.03z M424.8,33.879
	c-2.151,0.264-4.274-0.323-5.982-1.656c-3.526-2.751-4.155-7.857-1.404-11.382c1.598-2.047,3.989-3.116,6.402-3.116
	c1.745,0,3.501,0.559,4.98,1.712c3.525,2.751,4.155,7.858,1.403,11.382C428.868,32.528,426.949,33.615,424.8,33.879z
	 M381.188,69.854c-1.708-1.333-2.794-3.251-3.059-5.4c-0.265-2.15,0.323-4.275,1.656-5.983c1.333-1.708,3.251-2.794,5.4-3.059
	c0.338-0.042,0.674-0.062,1.009-0.062c1.797,0,3.533,0.594,4.973,1.718c1.708,1.332,2.795,3.25,3.059,5.399
	c0.266,2.15-0.322,4.276-1.656,5.983C389.818,71.974,384.713,72.605,381.188,69.854z M117.341,362.274l32.209,32.209l-42.005,22.116
	l-12.32-12.32L117.341,362.274z M85.887,416.447l9.49,9.49L62.664,458.65c-1.631-1.513-3.25-3.052-4.839-4.643
	c-1.592-1.592-3.134-3.213-4.65-4.847L85.887,416.447z M450.092,114.881c0.338-0.042,0.674-0.062,1.009-0.062
	c1.797,0,3.533,0.594,4.973,1.717c3.526,2.751,4.155,7.857,1.404,11.382c-2.752,3.524-7.859,4.155-11.382,1.404
	c-3.526-2.752-4.156-7.858-1.405-11.382C446.024,116.233,447.942,115.147,450.092,114.881z M491.429,16.143l4.252,4.251
	l-12.746,19.093l-10.6-10.6L491.429,16.143z M126.232,80.146c6.831-4.838,16.371-4.216,22.484,1.899l70.352,70.351
	c-2.503,1.836-4.88,3.84-7.086,6.046c-1.27,1.27-2.492,2.53-3.67,3.783L126.232,80.146z M219.069,172.983
	c1.171-1.252,2.388-2.513,3.664-3.79c2.302-2.302,4.727-4.252,7.22-5.912l40.346,40.346l-10.655,9.933L219.069,172.983z
	 M255.064,276.221l-19.461-19.46l23.672-22.068l17.857,17.857L255.064,276.221z M298.264,252.179l9.933-10.655l40.342,40.342
	c-1.658,2.495-3.61,4.919-5.912,7.222c-1.276,1.276-2.537,2.494-3.789,3.664L298.264,252.179z M454.728,408.643l-18.221-18.221
	l10.294-10.295l18.222,18.222L454.728,408.643z M436.049,369.376l-10.294,10.295l-76.161-76.161c1.253-1.18,2.513-2.4,3.783-3.67
	c2.207-2.207,4.211-4.584,6.045-7.088L436.049,369.376z M342.81,204.394c8.256,13.409,13.208,28.099,14.111,42.227
	c0.378,5.914,0.123,13.048-1.783,20.34l-36.567-36.567L342.81,204.394z M297.438,230.765l-9.933,10.655l-17.102-17.102l10.655-9.932
	L297.438,230.765z M244.855,156.678c7.297-1.908,14.437-2.164,20.356-1.789c14.128,0.904,28.819,5.855,42.23,14.113l-26.012,24.25
	L244.855,156.678z M495.107,90.29c-2.752,3.524-7.857,4.155-11.382,1.404c-3.526-2.751-4.155-7.858-1.404-11.382
	c1.333-1.708,3.251-2.795,5.401-3.06c0.338-0.042,0.674-0.062,1.009-0.062c1.797,0,3.533,0.594,4.973,1.717
	C497.229,81.658,497.858,86.764,495.107,90.29z"/>
<g>
</g>
<g>
</g>
<g>
</g>
<g>
</g>
<g>
</g>
<g>
</g>
<g>
</g>
<g>
</g>
<g>
</g>
<g>
</g>
<g>
</g>
<g>
</g>
<g>
</g>
<g>
</g>
<g>
</g>
</svg>
