<svg xmlns="http://www.w3.org/2000/svg" xmlns:xlink="http://www.w3.org/1999/xlink" viewBox="0 0 383.46 366.75"><defs><style>.cls-1{fill:#453c9e;}.cls-16,.cls-17,.cls-2{fill:#180d5b;}.cls-10,.cls-3,.cls-9{opacity:0.5;}.cls-4{fill:#242368;}.cls-5{fill:#27debf;}.cls-6{fill:#fafafa;}.cls-7{fill:#e0e0e0;}.cls-8{fill:#fff;}.cls-9{fill:url(#Áåçûìÿííûé_ãðàäèåíò_254);}.cls-10{fill:url(#Áåçûìÿííûé_ãðàäèåíò_254-3);}.cls-11{fill:#ffa8a7;}.cls-12{fill:#455a64;}.cls-13{fill:#37474f;}.cls-14{fill:#263238;}.cls-15{fill:#f28f8f;}.cls-16{opacity:0.4;}.cls-17{opacity:0.1;}.cls-18,.cls-19{opacity:0.15;}.cls-19{fill:none;stroke:#000;stroke-miterlimit:10;}</style><linearGradient id="Áåçûìÿííûé_ãðàäèåíò_254" x1="246.41" y1="383.25" x2="246.41" y2="383.25" gradientUnits="userSpaceOnUse"><stop offset="0" stop-color="#8be6de"/><stop offset="0.15" stop-color="#89e1de"/><stop offset="0.33" stop-color="#84d3dc"/><stop offset="0.52" stop-color="#7bbbda"/><stop offset="0.73" stop-color="#6f9ad7"/><stop offset="0.94" stop-color="#5f70d3"/><stop offset="1" stop-color="#5a61d2"/></linearGradient><linearGradient id="Áåçûìÿííûé_ãðàäèåíò_254-3" x1="217" y1="400.23" x2="217" y2="400.23" xlink:href="#Áåçûìÿííûé_ãðàäèåíò_254"/></defs><title>blog-login</title><g id="Device"><path class="cls-1" d="M67.82,410.06A9.34,9.34,0,0,1,60,409.9,9.32,9.32,0,0,1,56,402.51V385.13l8.15,4.72v17.38C64.1,409.76,65.71,410.91,67.82,410.06Z" transform="translate(-55.95 -62.11)"/><path class="cls-1" d="M67.82,410.06A9.34,9.34,0,0,1,60,409.9,9.32,9.32,0,0,1,56,402.51V385.13l8.15,4.72v17.38C64.1,409.76,65.71,410.91,67.82,410.06Z" transform="translate(-55.95 -62.11)"/><path class="cls-1" d="M65.39,207.38a9.25,9.25,0,0,0-1.29,4.29V389.85L56,385.13V207a8.9,8.9,0,0,1,1.28-4.3Z" transform="translate(-55.95 -62.11)"/><path class="cls-2" d="M214.2,389.64l34.94-20.2c3.6-2.08,5.4-4.8,5.4-7.53s0-4.86,0-4.86l-36.24-20.44a7.64,7.64,0,0,1-3.48-6V287.52l-61,35.26v43.07a7.7,7.7,0,0,0,3.48,6l30.84,17.76C195.32,393.8,207,393.8,214.2,389.64Z" transform="translate(-55.95 -62.11)"/><path class="cls-2" d="M214.2,389.64l34.94-20.2c3.6-2.08,5.4-4.8,5.4-7.53s0-4.86,0-4.86l-36.24-20.44a7.64,7.64,0,0,1-3.48-6V287.52l-61,35.26v43.07a7.7,7.7,0,0,0,3.48,6l30.84,17.76C195.32,393.8,207,393.8,214.2,389.64Z" transform="translate(-55.95 -62.11)"/><path class="cls-2" d="M168.45,373.48v4.84l-11.18-6.45a7.67,7.67,0,0,1-3.47-6V322.78l11.62-6.71c.24,2.95.5,6,.75,9L158,329.77v33.65a7.63,7.63,0,0,0,3.48,6Z" transform="translate(-55.95 -62.11)"/><path class="cls-1" d="M158,363.43a7.68,7.68,0,0,0,3.48,6l26.62,15.34c7.2,4.15,18.88,4.16,26.09,0l35-20.2c7.21-4.16,7.21-10.9,0-15.06l-26.64-15.34a7.69,7.69,0,0,1-3.47-6V294.51l-61,35.26Z" transform="translate(-55.95 -62.11)"/><path class="cls-1" d="M158,363.43a7.68,7.68,0,0,0,3.48,6l26.62,15.34c7.2,4.15,18.88,4.16,26.09,0l35-20.2c7.21-4.16,7.21-10.9,0-15.06l-26.64-15.34a7.69,7.69,0,0,1-3.47-6V294.51l-61,35.26Z" transform="translate(-55.95 -62.11)"/><path class="cls-3" d="M229.6,338.28h0l-7.09-4.09a7.69,7.69,0,0,1-3.47-6V294.51l-61,35.26v33.66a7.68,7.68,0,0,0,3.48,6l7,4Z" transform="translate(-55.95 -62.11)"/><path class="cls-2" d="M254.55,357.06v4.86c0,2.73-1.81,5.44-5.4,7.53l-35,20.19a26.23,26.23,0,0,1-12.45,3.09v-4.84a26.23,26.23,0,0,0,12.45-3.09l35-20.21C252.74,362.52,254.55,359.79,254.55,357.06Z" transform="translate(-55.95 -62.11)"/><path class="cls-2" d="M254.55,357.06v4.86c0,2.73-1.81,5.44-5.4,7.53l-35,20.19a26.23,26.23,0,0,1-12.45,3.09v-4.84a26.23,26.23,0,0,0,12.45-3.09l35-20.21C252.74,362.52,254.55,359.79,254.55,357.06Z" transform="translate(-55.95 -62.11)"/><path class="cls-1" d="M60,405.26a9.35,9.35,0,0,0,8.43-.15l236-136.25a9.62,9.62,0,0,0,4.35-7.53V70.41a8.16,8.16,0,0,0-12.5-7.21L60.3,199.45A9.58,9.58,0,0,0,56,207V397.89A9.32,9.32,0,0,0,60,405.26Z" transform="translate(-55.95 -62.11)"/><path class="cls-1" d="M68.46,405.1l236-136.25a9.59,9.59,0,0,0,4.35-7.53V70.41c0-2.77-1.95-3.9-4.35-2.51l-236,136.25a9.61,9.61,0,0,0-4.35,7.53V402.59C64.11,405.36,66.06,406.49,68.46,405.1Z" transform="translate(-55.95 -62.11)"/><path class="cls-2" d="M67.46,410.1l236-136.25a9.59,9.59,0,0,0,4.35-7.53V75.41c0-2.77-1.95-3.9-4.35-2.51l-236,136.25a9.61,9.61,0,0,0-4.35,7.53V407.59C63.11,410.36,65.06,411.49,67.46,410.1Z" transform="translate(-55.95 -62.11)"/><path class="cls-1" d="M64.1,389.85v17.38c0,2.77,2,3.89,4.35,2.51l236-136.25A9.62,9.62,0,0,0,308.8,266V248.54Z" transform="translate(-55.95 -62.11)"/><path class="cls-1" d="M63.11,389.81v17.42c0,2.77,2,3.89,4.35,2.51l236-136.25A9.62,9.62,0,0,0,307.8,266V248.54Z" transform="translate(-55.95 -62.11)"/><path class="cls-4" d="M72.26,368V214.39a5.75,5.75,0,0,1,2.6-4.52L298,81c1.44-.83,2.61-.16,2.61,1.5V236.19a5.76,5.76,0,0,1-2.61,4.52L74.87,369.55C73.43,370.38,72.26,369.7,72.26,368Z" transform="translate(-55.95 -62.11)"/><path class="cls-4" d="M72.26,368V214.39a5.75,5.75,0,0,1,2.6-4.52L298,81c1.44-.83,2.61-.16,2.61,1.5V236.19a5.76,5.76,0,0,1-2.61,4.52L74.87,369.55C73.43,370.38,72.26,369.7,72.26,368Z" transform="translate(-55.95 -62.11)"/><path class="cls-5" d="M186.45,324.73a9,9,0,0,0-4.08,7.06c0,2.6,1.83,3.66,4.08,2.36a9,9,0,0,0,4.08-7.07C190.53,324.48,188.7,323.43,186.45,324.73Z" transform="translate(-55.95 -62.11)"/><path class="cls-1" d="M308.76,69.69c-.31-2.24-2.12-3-4.31-1.79l-236,136.25a8.94,8.94,0,0,0-3.07,3.23l-8.16-4.71a9,9,0,0,1,3.08-3.23L296.3,63.2a8.12,8.12,0,0,1,12.46,6.49Z" transform="translate(-55.95 -62.11)"/></g><g id="Window"><path class="cls-1" d="M321.49,93.19a2.16,2.16,0,0,0-2.22.17L96.59,222a6.71,6.71,0,0,0-3,5.27V379.94a3,3,0,0,0,1.29,2.65c.49.27,3.11,1.79,3.89,2.21a1.75,1.75,0,0,0,1.76-.1L323.16,256.06a6.71,6.71,0,0,0,3-5.27V97.33a2.1,2.1,0,0,0-.94-2C324.72,95,322.05,93.52,321.49,93.19Z" transform="translate(-55.95 -62.11)"/><path class="cls-6" d="M99.48,384.49c-.85,0-1.55-1.05-1.55-2.34V229.43a6.26,6.26,0,0,1,2.8-4.84L323.42,96a2.27,2.27,0,0,1,1.11-.35c.74,0,1.18.63,1.18,1.68V250.79a6.3,6.3,0,0,1-2.79,4.84L100.23,384.26A1.51,1.51,0,0,1,99.48,384.49Z" transform="translate(-55.95 -62.11)"/><path class="cls-7" d="M324.53,96.15h0c.59,0,.68.74.68,1.18V250.79a5.68,5.68,0,0,1-2.55,4.4L100,383.83a1,1,0,0,1-.5.16c-.56,0-1-.86-1-1.84V229.43A5.74,5.74,0,0,1,101,225L323.67,96.43a1.77,1.77,0,0,1,.86-.28m0-1a2.8,2.8,0,0,0-1.36.42L100.48,224.16a6.73,6.73,0,0,0-3,5.27V382.15c0,1.54.86,2.84,2,2.84a2,2,0,0,0,1-.29L323.16,256.06a6.71,6.71,0,0,0,3-5.27V97.33c0-1.38-.68-2.18-1.68-2.18Z" transform="translate(-55.95 -62.11)"/><path class="cls-1" d="M94.82,382.59c.33.17,2.7,1.52,3.74,2.12a3.11,3.11,0,0,1-1.12-2.56V239.4l-3.9-2.28V379.94A3,3,0,0,0,94.82,382.59Z" transform="translate(-55.95 -62.11)"/><path class="cls-1" d="M326.21,97.3c0-1.92-1.37-2.7-3-1.73L100.48,224.16a6.73,6.73,0,0,0-3,5.27v10L326.21,107.3Z" transform="translate(-55.95 -62.11)"/><path class="cls-2" d="M323.17,95.57,100.48,224.15a6.25,6.25,0,0,0-2.14,2.27l-3.87-2.25A6,6,0,0,1,96.59,222L319.27,93.36a2.16,2.16,0,0,1,2.22-.18c.54.34,3.07,1.77,3.72,2.12A2.2,2.2,0,0,0,323.17,95.57Z" transform="translate(-55.95 -62.11)"/><path class="cls-2" d="M93.64,237.17l-.18-9.9a6.35,6.35,0,0,1,.86-3.07l3.93,2.16a6.14,6.14,0,0,0-.86,3l.19,10Z" transform="translate(-55.95 -62.11)"/><path class="cls-1" d="M279.25,212.42l-133.37,77a4.91,4.91,0,0,0-2.23,3.85v38.24a4.91,4.91,0,0,0,2.23,3.85l3.89,2.24a4.94,4.94,0,0,0,4.46,0l133.35-77a4.93,4.93,0,0,0,2.23-3.86l0-38.25a4.91,4.91,0,0,0-2.23-3.85l-3.9-2.24A4.91,4.91,0,0,0,279.25,212.42Z" transform="translate(-55.95 -62.11)"/><path class="cls-2" d="M289.81,218.15c-.16-1.15-1.09-1.57-2.21-.92l-133.37,77a4.49,4.49,0,0,0-1.57,1.66l-8.35-4.82a4.57,4.57,0,0,1,1.56-1.64l133.38-77a4.91,4.91,0,0,1,4.45,0l3.9,2.24A5,5,0,0,1,289.81,218.15Z" transform="translate(-55.95 -62.11)"/><path class="cls-2" d="M153.85,337.79a5,5,0,0,1-4.07-.18l-3.9-2.24a4.93,4.93,0,0,1-2.23-3.85V293.28a4.63,4.63,0,0,1,.66-2.21l8.35,4.82a4.48,4.48,0,0,0-.66,2.19v38.25C152,337.6,152.8,338.19,153.85,337.79Z" transform="translate(-55.95 -62.11)"/><path class="cls-1" d="M154.23,294.23l133.37-77c1.23-.71,2.23-.14,2.23,1.28l0,38.25a4.93,4.93,0,0,1-2.23,3.86l-133.35,77c-1.23.71-2.23.13-2.23-1.29V298.09A4.93,4.93,0,0,1,154.23,294.23Z" transform="translate(-55.95 -62.11)"/><path class="cls-2" d="M243.89,232.84l-98,56.59a4.57,4.57,0,0,0-1.56,1.64l8.35,4.82a4.49,4.49,0,0,1,1.57-1.66l98-56.58Z" transform="translate(-55.95 -62.11)"/><path class="cls-4" d="M252.23,237.65l-98,56.58a4.93,4.93,0,0,0-2.23,3.86v38.23c0,1.42,1,2,2.23,1.29l98-56.58Z" transform="translate(-55.95 -62.11)"/><path class="cls-1" d="M176.83,289.57l50.57-29.19c2.09-1.21,3.79-.35,3.79,1.92a8.13,8.13,0,0,1-3.8,6.3l-50.56,29.2c-2.09,1.21-3.8.35-3.8-1.92A8.16,8.16,0,0,1,176.83,289.57Z" transform="translate(-55.95 -62.11)"/><path class="cls-6" d="M187.19,299.24a.1.1,0,0,1,.15,0,.37.37,0,0,1,.06.23v5.69a9.54,9.54,0,0,1-.14,1.64,6.35,6.35,0,0,1-.42,1.44,5.11,5.11,0,0,1-.7,1.18,3.67,3.67,0,0,1-1,.83,1.85,1.85,0,0,1-1,.3,1,1,0,0,1-.7-.37,2.25,2.25,0,0,1-.42-1,6.91,6.91,0,0,1-.13-1.47v-5.7a.72.72,0,0,1,.06-.29.36.36,0,0,1,.15-.2l.63-.37a.11.11,0,0,1,.15,0,.35.35,0,0,1,.06.23v5.62a3.79,3.79,0,0,0,.09.92,1,1,0,0,0,.24.52.45.45,0,0,0,.37.16,1,1,0,0,0,.48-.16,2.16,2.16,0,0,0,.48-.39,2.37,2.37,0,0,0,.38-.6,3.77,3.77,0,0,0,.25-.8,5.28,5.28,0,0,0,.08-1v-5.63a.73.73,0,0,1,.07-.29.36.36,0,0,1,.15-.2Z" transform="translate(-55.95 -62.11)"/><path class="cls-6" d="M191.11,304.62a.36.36,0,0,0-.05-.21.22.22,0,0,0-.19-.07,1.37,1.37,0,0,0-.37,0l-.58.11a1.18,1.18,0,0,1-.57,0,.69.69,0,0,1-.36-.27,1.43,1.43,0,0,1-.19-.53,4.52,4.52,0,0,1,0-1.62,4.49,4.49,0,0,1,.32-.89,4.32,4.32,0,0,1,.5-.8,2.51,2.51,0,0,1,.68-.59,1.73,1.73,0,0,1,.69-.24.84.84,0,0,1,.51.11.83.83,0,0,1,.33.38,1.59,1.59,0,0,1,.13.59.49.49,0,0,1-.06.29.36.36,0,0,1-.15.2l-.6.35a.18.18,0,0,1-.18,0l-.13-.1a.33.33,0,0,0-.18-.07.82.82,0,0,0-.36.13,1.54,1.54,0,0,0-.41.36.87.87,0,0,0-.18.55.63.63,0,0,0,0,.23.23.23,0,0,0,.17.1,1,1,0,0,0,.33,0l.56-.1c.47-.09.79,0,1,.26a2.1,2.1,0,0,1,.29,1.23,3.51,3.51,0,0,1-.12.88,4.27,4.27,0,0,1-.34.9,3.8,3.8,0,0,1-.55.82,2.83,2.83,0,0,1-.73.61,1.63,1.63,0,0,1-.73.25.9.9,0,0,1-.53-.15.92.92,0,0,1-.34-.43,1.5,1.5,0,0,1-.12-.6.54.54,0,0,1,.06-.3.36.36,0,0,1,.15-.2l.6-.35c.08,0,.14-.05.18,0l.13.14a.3.3,0,0,0,.21.1.64.64,0,0,0,.39-.13,1.87,1.87,0,0,0,.48-.39,1.24,1.24,0,0,0,.17-.27A.6.6,0,0,0,191.11,304.62Z" transform="translate(-55.95 -62.11)"/><path class="cls-6" d="M193.15,301.91a8.93,8.93,0,0,1,.13-1.55,7.46,7.46,0,0,1,.39-1.41,4.8,4.8,0,0,1,.6-1.15,2.57,2.57,0,0,1,.8-.75,1.09,1.09,0,0,1,.79-.17,1,1,0,0,1,.6.41,2.5,2.5,0,0,1,.39.9,5.58,5.58,0,0,1,.14,1.28v.62a.6.6,0,0,1-.07.3.36.36,0,0,1-.15.2l-2.6,1.51a1.56,1.56,0,0,0,.07.52.65.65,0,0,0,.2.29.42.42,0,0,0,.29.09.82.82,0,0,0,.34-.12,1.45,1.45,0,0,0,.4-.32,1.83,1.83,0,0,0,.26-.38,2.65,2.65,0,0,1,.14-.23.64.64,0,0,1,.15-.13l.62-.36a.12.12,0,0,1,.15,0,.28.28,0,0,1,.06.23,1.93,1.93,0,0,1-.12.57,4.34,4.34,0,0,1-.34.8,4.59,4.59,0,0,1-.56.82,3,3,0,0,1-.76.65,1.21,1.21,0,0,1-.8.19,1,1,0,0,1-.6-.42,2.65,2.65,0,0,1-.39-1A6.8,6.8,0,0,1,193.15,301.91Zm1.92-3.19a1.17,1.17,0,0,0-.39.34,1.92,1.92,0,0,0-.27.46,3.39,3.39,0,0,0-.17.51,3.27,3.27,0,0,0-.07.48l1.76-1a2.9,2.9,0,0,0-.06-.41.66.66,0,0,0-.14-.33.38.38,0,0,0-.26-.16A.6.6,0,0,0,195.07,298.72Z" transform="translate(-55.95 -62.11)"/><path class="cls-6" d="M200.13,295.93a1.61,1.61,0,0,0-.68.76,3.44,3.44,0,0,0-.21,1.32v3.61a.73.73,0,0,1-.06.3.36.36,0,0,1-.15.2l-.59.34a.1.1,0,0,1-.15,0,.37.37,0,0,1-.06-.23v-6.47a.8.8,0,0,1,.06-.3.41.41,0,0,1,.15-.2l.59-.34a.11.11,0,0,1,.15,0,.32.32,0,0,1,.06.22v.32a4.12,4.12,0,0,1,.44-.76,1.82,1.82,0,0,1,.6-.53l.36-.21a.1.1,0,0,1,.14,0,.37.37,0,0,1,.07.23v.91a.73.73,0,0,1-.07.3.41.41,0,0,1-.14.2Z" transform="translate(-55.95 -62.11)"/><path class="cls-6" d="M207.59,295.45a.1.1,0,0,1,.15,0,.37.37,0,0,1,.06.23v1a.8.8,0,0,1-.06.3.52.52,0,0,1-.15.19l-3.42,2a.11.11,0,0,1-.15,0,.34.34,0,0,1-.06-.22v-9a.8.8,0,0,1,.06-.3.38.38,0,0,1,.15-.19l.63-.37a.11.11,0,0,1,.15,0,.34.34,0,0,1,.06.22v7.61Z" transform="translate(-55.95 -62.11)"/><path class="cls-6" d="M210.66,288.05a1.2,1.2,0,0,1,.77-.21.92.92,0,0,1,.61.3,1.92,1.92,0,0,1,.4.74,4.28,4.28,0,0,1,.18,1.09c0,.08,0,.19,0,.32v.77c0,.12,0,.23,0,.32a7,7,0,0,1-.18,1.29,6.26,6.26,0,0,1-.4,1.2,4.46,4.46,0,0,1-.61,1,2.76,2.76,0,0,1-.77.69,1.31,1.31,0,0,1-.78.21.91.91,0,0,1-.6-.3,1.7,1.7,0,0,1-.4-.73,4.28,4.28,0,0,1-.18-1.09c0-.08,0-.18,0-.31v-.77c0-.13,0-.24,0-.32a6.35,6.35,0,0,1,.17-1.3,6.62,6.62,0,0,1,.41-1.21,4.83,4.83,0,0,1,.6-1A2.66,2.66,0,0,1,210.66,288.05Zm.94,2.58a2,2,0,0,0-.11-.65.62.62,0,0,0-.22-.32.43.43,0,0,0-.29-.07.87.87,0,0,0-.32.13,1.41,1.41,0,0,0-.32.24,1.79,1.79,0,0,0-.29.4,2.19,2.19,0,0,0-.22.58,4,4,0,0,0-.12.78c0,.08,0,.17,0,.28v.71c0,.11,0,.2,0,.26a2.36,2.36,0,0,0,.12.65.61.61,0,0,0,.22.32.37.37,0,0,0,.29.06.9.9,0,0,0,.32-.12,1.67,1.67,0,0,0,.32-.24,2.17,2.17,0,0,0,.29-.4,2.6,2.6,0,0,0,.22-.58,3.57,3.57,0,0,0,.11-.78,2.18,2.18,0,0,0,0-.28v-.7A2.1,2.1,0,0,0,211.6,290.63Z" transform="translate(-55.95 -62.11)"/><path class="cls-6" d="M215.68,293.9a1.42,1.42,0,0,0,.34-.29,2.45,2.45,0,0,0,.31-.46,3.08,3.08,0,0,0,.23-.63,3,3,0,0,0,.09-.75v-.51c0,.1-.1.22-.17.36a3,3,0,0,1-.24.42,4,4,0,0,1-.34.4,1.76,1.76,0,0,1-.43.33.92.92,0,0,1-.71.14,1,1,0,0,1-.54-.41,2.72,2.72,0,0,1-.35-.84,5.75,5.75,0,0,1-.14-1.15c0-.13,0-.29,0-.48s0-.35,0-.49a8.45,8.45,0,0,1,.14-1.31,7.89,7.89,0,0,1,.35-1.25,5,5,0,0,1,.54-1,2.28,2.28,0,0,1,.71-.68,1.41,1.41,0,0,1,.43-.17.93.93,0,0,1,.34,0,.62.62,0,0,1,.24.13.91.91,0,0,1,.17.17v-.32a.8.8,0,0,1,.06-.3.38.38,0,0,1,.15-.19l.59-.35a.11.11,0,0,1,.15,0,.37.37,0,0,1,.07.23V291a6.86,6.86,0,0,1-.53,2.84,3.63,3.63,0,0,1-1.46,1.7,1.54,1.54,0,0,1-.74.23,1,1,0,0,1-.59-.15,1.35,1.35,0,0,1-.4-.48,2,2,0,0,1-.16-.72.54.54,0,0,1,.06-.3.36.36,0,0,1,.15-.2l.53-.3a.13.13,0,0,1,.19,0,1,1,0,0,1,.13.17.47.47,0,0,0,.28.22C215.25,294.1,215.43,294,215.68,293.9Zm-.94-4.85q0,.4,0,.78a1.7,1.7,0,0,0,.32,1.12.49.49,0,0,0,.64,0,1.72,1.72,0,0,0,.65-.78,3.62,3.62,0,0,0,.3-1.32c0-.15,0-.33,0-.54s0-.39,0-.52a1.53,1.53,0,0,0-.3-1,.48.48,0,0,0-.65-.05,1.73,1.73,0,0,0-.64.77A3.83,3.83,0,0,0,214.74,289.05Z" transform="translate(-55.95 -62.11)"/><path class="cls-6" d="M220,280.17a.11.11,0,0,1,.14,0,.32.32,0,0,1,.07.23v1.09a.66.66,0,0,1-.07.3.43.43,0,0,1-.14.19l-.67.39a.1.1,0,0,1-.15,0,.29.29,0,0,1-.07-.22v-1.09a.66.66,0,0,1,.07-.3.38.38,0,0,1,.15-.19Zm.17,9.39a.72.72,0,0,1-.06.29.49.49,0,0,1-.15.2l-.6.34a.09.09,0,0,1-.14,0,.32.32,0,0,1-.07-.23v-6.47a.66.66,0,0,1,.07-.3.47.47,0,0,1,.14-.2l.6-.34a.11.11,0,0,1,.15,0,.34.34,0,0,1,.06.22Z" transform="translate(-55.95 -62.11)"/><path class="cls-6" d="M225.43,286.51a.8.8,0,0,1-.06.3.38.38,0,0,1-.15.19l-.6.35a.1.1,0,0,1-.14,0,.32.32,0,0,1-.07-.23v-3.52a2.45,2.45,0,0,0-.22-1.21c-.14-.25-.36-.29-.67-.11a1.64,1.64,0,0,0-.65.87,4.2,4.2,0,0,0-.24,1.47v3.53a.8.8,0,0,1-.06.3.36.36,0,0,1-.15.2l-.59.34a.1.1,0,0,1-.15,0,.32.32,0,0,1-.06-.22v-6.47a.73.73,0,0,1,.06-.3.36.36,0,0,1,.15-.2l.59-.34a.1.1,0,0,1,.15,0,.37.37,0,0,1,.06.23V282a5.15,5.15,0,0,1,.48-.87,1.88,1.88,0,0,1,.65-.61,1.09,1.09,0,0,1,.79-.2.81.81,0,0,1,.52.41,2.54,2.54,0,0,1,.28.87,9,9,0,0,1,.08,1.2Z" transform="translate(-55.95 -62.11)"/><path class="cls-4" d="M275.87,257.4,266.16,263l1.51-13.62c-1.17-.62-1.91-2.13-1.91-4.3,0-3.87,2.36-8.36,5.26-10s5.25.1,5.25,4a13.26,13.26,0,0,1-1.9,6.5Z" transform="translate(-55.95 -62.11)"/><polygon class="cls-2" points="219.92 195.29 211.38 190.36 210.21 200.9 219.92 195.29"/><path class="cls-2" d="M271,235.05a11.45,11.45,0,0,0-4.48,5.95l7.83,4.52h0a13.26,13.26,0,0,0,1.9-6.5C276.27,235.15,273.92,233.38,271,235.05Z" transform="translate(-55.95 -62.11)"/><path class="cls-1" d="M223.8,189.7c-3.33-1.92-7.92-1.65-13,1.28-10.14,5.86-18.36,20.09-18.36,31.8,0,5.88,2.08,10,5.42,11.9l6.47,3.76c3.32,1.92,7.91,1.64,13-1.29,10.14-5.85,18.36-20.09,18.36-31.8,0-5.85-2.06-10-5.38-11.87" transform="translate(-55.95 -62.11)"/><path class="cls-1" d="M217.32,194.75c-10.14,5.86-18.36,20.1-18.36,31.8s8.22,16.46,18.36,10.6,18.37-20.09,18.36-31.8S227.45,188.9,217.32,194.75Z" transform="translate(-55.95 -62.11)"/><path class="cls-1" d="M227.45,220.73v1.34a29.53,29.53,0,0,1-10.13,10.62c-3.95,2.27-7.52,2.52-10.14,1.07V231a18,18,0,0,1,8.26-14.31l2.67-1.54c2.36-1.36,4.66-1.54,6.46-.49S227.45,217.92,227.45,220.73Z" transform="translate(-55.95 -62.11)"/><path class="cls-2" d="M223.8,189.7l6.5,3.78c-3.32-1.93-7.91-1.66-13,1.27-6.64,3.84-12.46,11.27-15.68,19.23l-6.51-3.77c3.23-8,9-15.39,15.68-19.23C215.89,188.06,220.48,187.78,223.8,189.7Z" transform="translate(-55.95 -62.11)"/><path class="cls-2" d="M204.1,238.29l-6.23-3.61c-3.34-1.9-5.42-6-5.42-11.9l6.51,3.78C199,232.26,200.92,236.32,204.1,238.29Z" transform="translate(-55.95 -62.11)"/><path class="cls-2" d="M195.13,210.21l6.51,3.77A34.11,34.11,0,0,0,199,226.55h0l-6.51-3.78A34.23,34.23,0,0,1,195.13,210.21Z" transform="translate(-55.95 -62.11)"/><path class="cls-8" d="M215,214.52a3.49,3.49,0,0,1-1.77-.46,4.33,4.33,0,0,1-1.91-4,11.42,11.42,0,0,1,5.24-9.08h0a3.92,3.92,0,0,1,6.32,3.66,11.44,11.44,0,0,1-5.24,9.08A5.29,5.29,0,0,1,215,214.52Z" transform="translate(-55.95 -62.11)"/><path class="cls-8" d="M224.57,214.65c-1.8-1.05-4.1-.87-6.46.49l-2.67,1.54A18,18,0,0,0,207.18,231v2.77c2.62,1.45,6.19,1.2,10.14-1.07a29.53,29.53,0,0,0,10.13-10.62v-1.34C227.45,217.92,226.41,215.71,224.57,214.65Z" transform="translate(-55.95 -62.11)"/><path class="cls-9" d="M246.41,383.25" transform="translate(-55.95 -62.11)"/><path class="cls-9" d="M246.41,383.25" transform="translate(-55.95 -62.11)"/><path class="cls-10" d="M217,400.23" transform="translate(-55.95 -62.11)"/><path class="cls-9" d="M246.41,383.25" transform="translate(-55.95 -62.11)"/><path class="cls-10" d="M217,400.23" transform="translate(-55.95 -62.11)"/><path class="cls-10" d="M217,400.23" transform="translate(-55.95 -62.11)"/></g><g id="Character"><path class="cls-11" d="M395.37,259.23c-4.2,7.1-8.24,13.27-11.08,16.23-5.39,2.5-18.05,6.36-23,7a3.65,3.65,0,0,1-2.48-.58c-1.95-1.28-3.46-1.49-5.51-2.2-1.61-.55-2.29-1.32-2.59-1a1.83,1.83,0,0,0,.17,2.55,13.52,13.52,0,0,0,2.54,1.9,15,15,0,0,1-6.7.12c-4.29-1.13-6.31.93-3.41,5.59,1,1.66,5.12,4.33,13.4,3.61a75,75,0,0,0,8.81-1c7.94-1.7,16.77-3.34,22.2-5a14,14,0,0,0,5.28-3.66c9.13-10.41,12.16-17.83,16.16-24.57l-.34-11C402.34,247,398.88,253.29,395.37,259.23Z" transform="translate(-55.95 -62.11)"/><path class="cls-12" d="M409.93,247a10.41,10.41,0,0,0-9.9,4.23c-4.44,5.69-12.3,19.35-12.3,19.35s2.57,6.85,9.51,8l11.15-15.06S413.67,253.06,409.93,247Z" transform="translate(-55.95 -62.11)"/><rect class="cls-11" x="370.82" y="338.43" width="7.27" height="12.96"/><polygon class="cls-11" points="352.89 337.74 345.63 338 345.26 324.28 352.89 324.02 352.89 337.74"/><path class="cls-13" d="M435.06,288.35c0,7.22-1.06,65.39-1.06,65.39.16,2.08,2,5.92,1.63,13.91-.55,10.85-1.28,39.37-1.28,39.37a9.24,9.24,0,0,1-8.09.16s-5.9-40-7.2-50.71C417.92,347.08,415,316,415,316l-3.93,36.74a45.23,45.23,0,0,1,.9,12c-.34,5-2.68,30.88-2.68,30.88a9.61,9.61,0,0,1-8.39.67s-4.14-39-4.22-43.58c-.1-5.2,2.42-64.42,2.42-64.42Z" transform="translate(-55.95 -62.11)"/><path class="cls-14" d="M426.77,409.76v-1.08c-.7.31-2.31,6.73-5.2,9.47-2.29,2.18-5.41,4.69-6.21,7.12s4.35,3.92,6.5,3.53c2.48-.46,6.8-2.29,7.88-4s1.59-4.19,2.47-5.43,2.91-2.62,3.38-4.06a9.62,9.62,0,0,0-.41-4c-.34-1.34-.7-2.81-1.14-2.68v.82a5.64,5.64,0,0,1-3.64,1.28C429.34,410.82,426.76,410.6,426.77,409.76Z" transform="translate(-55.95 -62.11)"/><path class="cls-14" d="M401.5,397.77c-.38,0-.69.57-1.52,1.51a16,16,0,0,1-4.27,3.2c-2.72,1.42-8,3.6-10.41,4.73-1.5.7-1.43,2.58.12,3.65s5.28,1.84,9.76.8c2.44-.57,5.62-2.92,7.64-2.79s5.77.09,7.26-1,.89-3.35.47-5.3c-.46-2.14-1-5.47-1.71-5.32V398c-.87,1.38-5.38,1.94-7.3.93Z" transform="translate(-55.95 -62.11)"/><path class="cls-14" d="M415,316a26.72,26.72,0,0,1-10.12-6.05s2,3.81,7.76,7.36l-1.24,32.81Z" transform="translate(-55.95 -62.11)"/><path class="cls-1" d="M431,248.06s6,1.38,5.57,12.22l-1.25,17.25,0,25.9c-5.34,6.06-29,5.62-37.15-.48,0,0,.92-30.65,1.47-42.45.39-8.38,2.32-12.6,10.56-13.52l10.13.44Z" transform="translate(-55.95 -62.11)"/><path class="cls-14" d="M423.36,225.54a11,11,0,0,1-10.82,11.26c-6,0-9.52-5.18-10.82-11.26-2.4-11.13,4.84-11.27,10.82-11.27A11.05,11.05,0,0,1,423.36,225.54Z" transform="translate(-55.95 -62.11)"/><path class="cls-14" d="M428.88,230.09s-1.66,8.12-2.33,9.46a3.53,3.53,0,0,1-2,1.71l.12-5.71Z" transform="translate(-55.95 -62.11)"/><path class="cls-14" d="M426.79,218.46s1.19-.3,2.46,1.68c1.08,1.69,1.33,5.49-.37,10l-3.13.38Z" transform="translate(-55.95 -62.11)"/><path class="cls-14" d="M427.94,220.11l3.84.07a1.81,1.81,0,0,0-1.75-2A2.13,2.13,0,0,0,427.94,220.11Z" transform="translate(-55.95 -62.11)"/><path class="cls-14" d="M428.41,219.2l2.84-2.73a1.83,1.83,0,0,0-2.69-.11A2.1,2.1,0,0,0,428.41,219.2Z" transform="translate(-55.95 -62.11)"/><path class="cls-11" d="M424.81,230.47c.63.39,1.52-.86,2.3-1.71s3.2-1.63,4.46,1.13-.89,5.49-2.69,6.39c-3.23,1.6-4.25-.73-4.25-.73l-.27,12.86c-4.54,7-14.84,6.78-11.13-.34v-3.91a20.54,20.54,0,0,1-4.62.24c-2.52-.4-4.1-2.47-4.87-5.31-1.22-4.56-1.69-8.24-.65-17.21,1.14-9.82,12.12-9.93,18-6S424.81,230.47,424.81,230.47Z" transform="translate(-55.95 -62.11)"/><path class="cls-14" d="M411.13,220.35c2.62-.26,5.21-.8,7.84-1a5.1,5.1,0,0,1,1.7.08c2,.55,1.76,2.89,2.08,4.52.55,2.82,1,7.59,2.06,7.61.32,0,1.52-2.07,2.3-2.81a4.13,4.13,0,0,0,.7-2.15c.2-1.16.3-2.35.39-3.53.08-1,.18-2,.18-3a14.08,14.08,0,0,0-.27-3.37,5.89,5.89,0,0,0-1.4-2.52l-.2-.22a13.27,13.27,0,0,0-4.69-3.16,28.33,28.33,0,0,0-7.94-1.73,78,78,0,0,1-8.09-1,.84.84,0,0,0-.47,0,.74.74,0,0,0-.38.6,3.34,3.34,0,0,0,1.35,3.3c-1.81.14-3.89-.8-5.63-1.28a1.14,1.14,0,0,0-.89,0,.88.88,0,0,0-.35.51,3.18,3.18,0,0,0-.05,1.44,8.28,8.28,0,0,0,1.56,4,9.76,9.76,0,0,0,5.4,3.53A15.76,15.76,0,0,0,411.13,220.35Z" transform="translate(-55.95 -62.11)"/><path class="cls-15" d="M413.24,244.16s5.62-1.18,7.58-2.27a6.62,6.62,0,0,0,2.72-2.8,9.35,9.35,0,0,1-1.55,3.3c-1.43,1.92-8.75,3.32-8.75,3.32Z" transform="translate(-55.95 -62.11)"/><path class="cls-14" d="M414.59,229a1.17,1.17,0,0,0,1.12,1.21,1.22,1.22,0,1,0-1.12-1.21Z" transform="translate(-55.95 -62.11)"/><path class="cls-14" d="M416.39,224.15l2.41,1.39a1.53,1.53,0,0,0-.56-2A1.32,1.32,0,0,0,416.39,224.15Z" transform="translate(-55.95 -62.11)"/><path class="cls-15" d="M413.74,237.11l-2.57,1a1.34,1.34,0,0,0,1.75.88A1.5,1.5,0,0,0,413.74,237.11Z" transform="translate(-55.95 -62.11)"/><path class="cls-14" d="M404.25,225.18l2.2-1.76a1.3,1.3,0,0,0-1.91-.31A1.57,1.57,0,0,0,404.25,225.18Z" transform="translate(-55.95 -62.11)"/><path class="cls-14" d="M405.22,228.67a1.13,1.13,0,1,0,1.13-1.22A1.17,1.17,0,0,0,405.22,228.67Z" transform="translate(-55.95 -62.11)"/><polygon class="cls-15" points="355.3 165.62 355.16 172.74 351.13 171.81 355.3 165.62"/><polyline class="cls-2" points="259.36 225.17 265.63 221.55 268.11 218.54 261.85 222.16 259.36 225.17"/><polyline class="cls-16" points="259.36 225.17 265.63 221.55 268.11 218.54 261.85 222.16 259.36 225.17"/><polyline class="cls-2" points="276.41 235.01 282.67 231.39 287.91 226.76 281.65 230.38 276.41 235.01"/><polyline class="cls-16" points="276.41 235.01 282.67 231.39 287.91 226.76 281.65 230.38 276.41 235.01"/><path class="cls-1" d="M385.62,309.61a13.29,13.29,0,0,1,2.59,6.82A13.43,13.43,0,0,1,385.62,309.61Zm14.57.19c-2.11-14.35-9.82-28.54-19-33.85-4.41-2.55-8.49-2.64-11.76-.73l-5.9,3.4-.33.2a7.48,7.48,0,0,0-.76.48,10.24,10.24,0,0,0-1.36,1.12l-.2.19c-.18.18-.37.39-.54.59s-.43.51-.63.78a14.83,14.83,0,0,0-1.15,1.76c-.18.31-.35.64-.51,1L306.52,255l-6.26,3.61v4l.53.3.5.29V264l-1,.59v2.32l7.57,16,7.48,4.33,2.49-3,6.6,4,3.79,6.49,4.18,2.41,5.23-4.64,6.42,3.71,2.16,8.91L357,311.31a58.69,58.69,0,0,0,2,6.69c.07.22.16.45.25.7,3.58,9.4,9.27,17.45,15.69,21.16a16.09,16.09,0,0,0,2.41,1.17,12.56,12.56,0,0,0,1.35.45q.6.16,1.2.27a10.65,10.65,0,0,0,3.82,0l.52-.13a4.68,4.68,0,0,0,.73-.21l.56-.22a3.29,3.29,0,0,0,.57-.27,5.44,5.44,0,0,0,.54-.27l.26-.16a.42.42,0,0,0,.13-.07c1.43-.82,4.95-2.86,5.91-3.4,4.76-2.76,7.84-9.74,7.84-19.61A51.47,51.47,0,0,0,400.19,309.8Z" transform="translate(-55.95 -62.11)"/><path class="cls-1" d="M383.79,321.72c-2.48-1.43-4.48-5.67-4.48-9.47s2-5.73,4.48-4.31,4.47,5.67,4.47,9.48S386.26,323.15,383.79,321.72Zm10.13-8.31c-2.1-14.34-9.81-28.54-19-33.84-4.26-2.46-8.2-2.64-11.4-.95l-.33.2a7.48,7.48,0,0,0-.76.48,10.24,10.24,0,0,0-1.36,1.12l-.2.19c-.18.18-.37.39-.54.59s-.43.51-.63.78a14.83,14.83,0,0,0-1.15,1.76c-.18.31-.35.64-.51,1a24.33,24.33,0,0,0-2,6.09l-55.79-32.22v4l.53.3.5.29V264l-1,.59v2.32l7.57,16,7.48,4.33,2.49-3,6.6,4,3.79,6.49,4.18,2.41,5.23-4.64,6.42,3.71,2.16,8.91L357,311.31a58.69,58.69,0,0,0,2,6.69c.07.22.16.45.25.7,3.58,9.4,9.27,17.45,15.69,21.16a16.09,16.09,0,0,0,2.41,1.17,12.56,12.56,0,0,0,1.35.45q.6.16,1.2.27a10.65,10.65,0,0,0,3.82,0l.52-.13a4.68,4.68,0,0,0,.73-.21l.56-.22a3.29,3.29,0,0,0,.57-.27,5.44,5.44,0,0,0,.54-.27l.26-.16a.42.42,0,0,0,.13-.07c4.56-2.88,7.49-9.76,7.49-19.39A53.13,53.13,0,0,0,393.92,313.41Z" transform="translate(-55.95 -62.11)"/><path class="cls-2" d="M388.26,317.41c0,3.81-2,5.74-4.47,4.31s-4.48-5.66-4.48-9.47,2-5.74,4.48-4.31a6.38,6.38,0,0,1,1.83,1.68,13.38,13.38,0,0,0,2.59,6.82A7.88,7.88,0,0,1,388.26,317.41Z" transform="translate(-55.95 -62.11)"/><path class="cls-2" d="M400.76,317.4c0,9.87-3.08,16.85-7.84,19.61-1,.54-4.48,2.58-5.91,3.4,4.56-2.88,7.49-9.76,7.49-19.39a53.13,53.13,0,0,0-.58-7.61c-2.1-14.34-9.81-28.54-19-33.84-4.26-2.46-8.2-2.64-11.4-.95l5.9-3.4c3.27-1.91,7.35-1.82,11.76.73,9.19,5.31,16.9,19.5,19,33.85A51.47,51.47,0,0,1,400.76,317.4Z" transform="translate(-55.95 -62.11)"/><path class="cls-2" d="M394.5,321c0,9.63-2.93,16.51-7.49,19.39,1.43-.82,4.95-2.86,5.91-3.4,4.76-2.76,7.84-9.74,7.84-19.61,0-.36,0-.73,0-1.1l-6.26,3.62C394.49,320.29,394.5,320.65,394.5,321Z" transform="translate(-55.95 -62.11)"/><path class="cls-17" d="M394.5,321c0,9.63-2.93,16.51-7.49,19.39,1.43-.82,4.95-2.86,5.91-3.4,4.76-2.76,7.84-9.74,7.84-19.61,0-.36,0-.73,0-1.1l-6.26,3.62C394.49,320.29,394.5,320.65,394.5,321Z" transform="translate(-55.95 -62.11)"/><polygon class="cls-18" points="300.33 232.81 300.33 234.85 244.31 202.5 245.34 201.91 245.34 201.06 300.33 232.81"/><polygon class="cls-18" points="300.33 233.65 300.33 234.85 244.31 202.5 245.34 201.91 245.34 201.9 300.33 233.65"/><ellipse class="cls-19" cx="374.92" cy="309.71" rx="14.79" ry="27.68" transform="translate(-130.33 61.54) rotate(-17.06)"/><path class="cls-2" d="M358,284.72a24.33,24.33,0,0,0-2,6.09l-55.79-32.22,6.26-3.61Z" transform="translate(-55.95 -62.11)"/><path class="cls-11" d="M430.51,287.85c2.92-5.53,6.26-18,7.92-24.22,2.36-8.9-1.46-14.5-5.8-14.73-2.71.42-11.64,32.89-11.64,32.89-1,.79-14.57,7.68-18.93,9.41a3.42,3.42,0,0,1-2.42,0c-2.09-.76-3.52-.62-5.57-.82-1.61-.16-2.42-.73-2.63-.39a1.84,1.84,0,0,0,.79,2.37,13.14,13.14,0,0,0,2.8,1.22,17.09,17.09,0,0,1-5.41.73c-4.2-.09-5.71,1.73-2.45,6,2,2.66,5.31,3.5,12.7.95,2.12-.74,5-2.17,7.69-3.14,5.54-2,7-2.24,11.22-3.67C424.93,292.37,429.21,290.31,430.51,287.85Z" transform="translate(-55.95 -62.11)"/><path class="cls-12" d="M431,248.06c2.55.35,5,.92,6.51,3s2.72,5,1.24,12.95a124.3,124.3,0,0,1-4.54,16.48s-5.94,2.54-12.25-3.9l4.34-16.78S427,248.9,431,248.06Z" transform="translate(-55.95 -62.11)"/></g></svg>