<svg id="Ñëîé_1" data-name="Ñëîé 1" xmlns="http://www.w3.org/2000/svg" xmlns:xlink="http://www.w3.org/1999/xlink" viewBox="0 0 343.04 291.93"><defs><style>.cls-1{fill:none;}.cls-2{fill:url(#Áåçûìÿííûé_ãðàäèåíò_254);}.cls-3{fill:url(#Áåçûìÿííûé_ãðàäèåíò_4);}.cls-4{fill:url(#Áåçûìÿííûé_ãðàäèåíò_5);}.cls-19,.cls-5{fill:#24126a;}.cls-6{opacity:0.51;}.cls-7{fill:#453c9e;}.cls-8{fill:url(#Áåçûìÿííûé_ãðàäèåíò_5-2);}.cls-9{fill:url(#Áåçûìÿííûé_ãðàäèåíò_4-2);}.cls-10{fill:#2842a2;}.cls-11{fill:#adb1f2;}.cls-12{fill:#9198db;}.cls-13{fill:url(#Áåçûìÿííûé_ãðàäèåíò_4-3);}.cls-14{opacity:0.11;}.cls-15{clip-path:url(#clip-path);}.cls-16{fill:url(#Áåçûìÿííûé_ãðàäèåíò_4-4);}.cls-17{fill:url(#Áåçûìÿííûé_ãðàäèåíò_4-5);}.cls-18{fill:url(#Áåçûìÿííûé_ãðàäèåíò_4-6);}.cls-19{opacity:0.6;}.cls-20{fill:url(#Áåçûìÿííûé_ãðàäèåíò_5-3);}.cls-21{fill:url(#Áåçûìÿííûé_ãðàäèåíò_4-7);}.cls-22{fill:url(#Áåçûìÿííûé_ãðàäèåíò_4-8);}.cls-23{fill:#5761d7;}.cls-24,.cls-38{fill:#fff;}.cls-25{fill:url(#Áåçûìÿííûé_ãðàäèåíò_22);}.cls-26{fill:url(#Áåçûìÿííûé_ãðàäèåíò_254-2);}.cls-27{fill:url(#Áåçûìÿííûé_ãðàäèåíò_254-3);}.cls-28{fill:url(#Áåçûìÿííûé_ãðàäèåíò_254-4);}.cls-29{fill:url(#Áåçûìÿííûé_ãðàäèåíò_254-5);}.cls-30{fill:url(#Áåçûìÿííûé_ãðàäèåíò_254-6);}.cls-31{fill:url(#Áåçûìÿííûé_ãðàäèåíò_254-7);}.cls-32{fill:url(#Áåçûìÿííûé_ãðàäèåíò_254-8);}.cls-33{fill:url(#Áåçûìÿííûé_ãðàäèåíò_254-9);}.cls-34{fill:url(#Áåçûìÿííûé_ãðàäèåíò_254-10);}.cls-35{fill:url(#Áåçûìÿííûé_ãðàäèåíò_254-11);}.cls-36{fill:url(#Áåçûìÿííûé_ãðàäèåíò_23);}.cls-37{fill:url(#Áåçûìÿííûé_ãðàäèåíò_4-9);}.cls-38,.cls-40,.cls-41,.cls-42,.cls-43,.cls-44,.cls-45{opacity:0.5;}.cls-39{fill:#0f054c;}.cls-40{fill:url(#Áåçûìÿííûé_ãðàäèåíò_254-12);}.cls-41{fill:url(#Áåçûìÿííûé_ãðàäèåíò_254-13);}.cls-42{fill:url(#Áåçûìÿííûé_ãðàäèåíò_254-14);}.cls-43{fill:url(#Áåçûìÿííûé_ãðàäèåíò_254-15);}.cls-44{fill:url(#Áåçûìÿííûé_ãðàäèåíò_254-16);}.cls-45{fill:url(#Áåçûìÿííûé_ãðàäèåíò_254-17);}</style><linearGradient id="Áåçûìÿííûé_ãðàäèåíò_254" x1="192.01" y1="255.66" x2="401.15" y2="255.66" gradientTransform="matrix(-1, 0, 0, 1, 600, 0)" gradientUnits="userSpaceOnUse"><stop offset="0" stop-color="#42e8e0"/><stop offset="0.15" stop-color="#43e3e0"/><stop offset="0.33" stop-color="#45d5df"/><stop offset="0.52" stop-color="#49bddd"/><stop offset="0.72" stop-color="#4e9cdb"/><stop offset="0.93" stop-color="#5472d8"/><stop offset="1" stop-color="#5761d7"/></linearGradient><linearGradient id="Áåçûìÿííûé_ãðàäèåíò_4" x1="163.34" y1="154.54" x2="322.89" y2="154.54" gradientTransform="matrix(-1, 0, 0, 1, 600, 0)" gradientUnits="userSpaceOnUse"><stop offset="0" stop-color="#c0bff6"/><stop offset="0.29" stop-color="#c5c4f7"/><stop offset="0.64" stop-color="#d3d2f9"/><stop offset="1" stop-color="#e9e9fd"/></linearGradient><linearGradient id="Áåçûìÿííûé_ãðàäèåíò_5" x1="163.34" y1="195.45" x2="190.74" y2="195.45" gradientTransform="matrix(-1, 0, 0, 1, 600, 0)" gradientUnits="userSpaceOnUse"><stop offset="0" stop-color="#5761d7"/><stop offset="0.18" stop-color="#5c66d9"/><stop offset="0.39" stop-color="#6a73df"/><stop offset="0.61" stop-color="#8289e8"/><stop offset="0.85" stop-color="#a3a7f5"/><stop offset="1" stop-color="#bcbeff"/></linearGradient><linearGradient id="Áåçûìÿííûé_ãðàäèåíò_5-2" x1="184.71" y1="241.45" x2="410.05" y2="241.45" xlink:href="#Áåçûìÿííûé_ãðàäèåíò_5"/><linearGradient id="Áåçûìÿííûé_ãðàäèåíò_4-2" x1="260.43" y1="233.94" x2="485.88" y2="233.94" xlink:href="#Áåçûìÿííûé_ãðàäèåíò_4"/><linearGradient id="Áåçûìÿííûé_ãðàäèåíò_4-3" x1="298.61" y1="246.73" x2="356.32" y2="246.73" xlink:href="#Áåçûìÿííûé_ãðàäèåíò_4"/><clipPath id="clip-path" transform="translate(-158.43 -49.54)"><polygon id="SVGID" class="cls-1" points="296.37 68.11 429.5 144.98 412.99 242.3 279.95 165.49 296.37 68.11"/></clipPath><linearGradient id="Áåçûìÿííûé_ãðàäèåíò_4-4" x1="174.29" y1="183.97" x2="399.74" y2="183.97" xlink:href="#Áåçûìÿííûé_ãðàäèåíò_4"/><linearGradient id="Áåçûìÿííûé_ãðàäèåíò_4-5" x1="159.45" y1="167.42" x2="217.16" y2="167.42" xlink:href="#Áåçûìÿííûé_ãðàäèåíò_4"/><linearGradient id="Áåçûìÿííûé_ãðàäèåíò_4-6" x1="288.66" y1="378.56" x2="288.66" y2="336.54" gradientTransform="matrix(-0.87, -0.5, 0, 1.15, 605.96, -119.56)" xlink:href="#Áåçûìÿííûé_ãðàäèåíò_4"/><linearGradient id="Áåçûìÿííûé_ãðàäèåíò_5-3" x1="221.9" y1="174.95" x2="291.32" y2="116.7" xlink:href="#Áåçûìÿííûé_ãðàäèåíò_5"/><linearGradient id="Áåçûìÿííûé_ãðàäèåíò_4-7" x1="220.92" y1="157.53" x2="228.5" y2="151.17" xlink:href="#Áåçûìÿííûé_ãðàäèåíò_4"/><linearGradient id="Áåçûìÿííûé_ãðàäèåíò_4-8" x1="299.06" y1="385.69" x2="299.06" y2="343.67" gradientTransform="matrix(-0.87, -0.5, 0, 1.15, 605.96, -119.56)" xlink:href="#Áåçûìÿííûé_ãðàäèåíò_4"/><linearGradient id="Áåçûìÿííûé_ãðàäèåíò_22" x1="196.62" y1="295.96" x2="221.14" y2="295.96" gradientTransform="matrix(-0.5, -0.87, -0.87, 0.5, 751.86, 329.01)" gradientUnits="userSpaceOnUse"><stop offset="0" stop-color="#5761d7"/><stop offset="0.07" stop-color="#5472d8"/><stop offset="0.28" stop-color="#4e9cdb"/><stop offset="0.48" stop-color="#49bddd"/><stop offset="0.67" stop-color="#45d5df"/><stop offset="0.85" stop-color="#43e3e0"/><stop offset="1" stop-color="#42e8e0"/></linearGradient><linearGradient id="Áåçûìÿííûé_ãðàäèåíò_254-2" x1="163.6" y1="322.6" x2="200.68" y2="322.6" xlink:href="#Áåçûìÿííûé_ãðàäèåíò_254"/><linearGradient id="Áåçûìÿííûé_ãðàäèåíò_254-3" x1="158.03" y1="303.13" x2="201.1" y2="303.13" xlink:href="#Áåçûìÿííûé_ãðàäèåíò_254"/><linearGradient id="Áåçûìÿííûé_ãðàäèåíò_254-4" x1="138.46" y1="315.84" x2="196.69" y2="315.84" xlink:href="#Áåçûìÿííûé_ãðàäèåíò_254"/><linearGradient id="Áåçûìÿííûé_ãðàäèåíò_254-5" x1="166.96" y1="316.53" x2="192.35" y2="316.53" xlink:href="#Áåçûìÿííûé_ãðàäèåíò_254"/><linearGradient id="Áåçûìÿííûé_ãðàäèåíò_254-6" x1="146.75" y1="314.76" x2="184.43" y2="314.76" xlink:href="#Áåçûìÿííûé_ãðàäèåíò_254"/><linearGradient id="Áåçûìÿííûé_ãðàäèåíò_254-7" x1="159.04" y1="315.09" x2="179.56" y2="315.09" xlink:href="#Áåçûìÿííûé_ãðàäèåíò_254"/><linearGradient id="Áåçûìÿííûé_ãðàäèåíò_254-8" x1="785.8" y1="-81.27" x2="814.65" y2="-81.27" gradientTransform="matrix(-0.87, 0.5, 1, 0.58, 1166.88, -25.23)" xlink:href="#Áåçûìÿííûé_ãðàäèåíò_254"/><linearGradient id="Áåçûìÿííûé_ãðàäèåíò_254-9" x1="231.16" y1="321.74" x2="255.28" y2="321.74" xlink:href="#Áåçûìÿííûé_ãðàäèåíò_254"/><linearGradient id="Áåçûìÿííûé_ãðàäèåíò_254-10" x1="247.69" y1="311.7" x2="238.75" y2="331.79" xlink:href="#Áåçûìÿííûé_ãðàäèåíò_254"/><linearGradient id="Áåçûìÿííûé_ãðàäèåíò_254-11" x1="344.1" y1="107.9" x2="441.57" y2="107.9" xlink:href="#Áåçûìÿííûé_ãðàäèåíò_254"/><linearGradient id="Áåçûìÿííûé_ãðàäèåíò_23" x1="347.52" y1="105.89" x2="411.65" y2="105.89" gradientTransform="matrix(-1, 0, 0, 1, 441.57, -49.54)" gradientUnits="userSpaceOnUse"><stop offset="0.25" stop-color="#5761d7"/><stop offset="0.44" stop-color="#6c74df"/><stop offset="0.82" stop-color="#a2a6f5"/><stop offset="1" stop-color="#bcbeff"/></linearGradient><linearGradient id="Áåçûìÿííûé_ãðàäèåíò_4-9" x1="347.64" y1="88.28" x2="438.03" y2="88.28" gradientTransform="matrix(-1, 0, 0, 1, 441.57, -49.54)" xlink:href="#Áåçûìÿííûé_ãðàäèåíò_4"/><linearGradient id="Áåçûìÿííûé_ãðàäèåíò_254-12" x1="364.89" y1="88.28" x2="420.77" y2="88.28" gradientTransform="matrix(-1, 0, 0, 1, 441.57, -49.54)" xlink:href="#Áåçûìÿííûé_ãðàäèåíò_254"/><linearGradient id="Áåçûìÿííûé_ãðàäèåíò_254-13" x1="392.52" y1="68.94" x2="420.52" y2="68.94" gradientTransform="matrix(-1, 0, 0, 1, 441.57, -49.54)" xlink:href="#Áåçûìÿííûé_ãðàäèåíò_254"/><linearGradient id="Áåçûìÿííûé_ãðàäèåíò_254-14" x1="364.52" y1="68.94" x2="392.52" y2="68.94" gradientTransform="matrix(-1, 0, 0, 1, 441.57, -49.54)" xlink:href="#Áåçûìÿííûé_ãðàäèåíò_254"/><linearGradient id="Áåçûìÿííûé_ãðàäèåíò_254-15" x1="364.89" y1="65.72" x2="420.77" y2="65.72" gradientTransform="matrix(-1, 0, 0, 1, 441.57, -49.54)" xlink:href="#Áåçûìÿííûé_ãðàäèåíò_254"/><linearGradient id="Áåçûìÿííûé_ãðàäèåíò_254-16" x1="392.52" y1="85.07" x2="420.52" y2="85.07" gradientTransform="matrix(-1, 0, 0, 1, 441.57, -49.54)" xlink:href="#Áåçûìÿííûé_ãðàäèåíò_254"/><linearGradient id="Áåçûìÿííûé_ãðàäèåíò_254-17" x1="364.52" y1="85.07" x2="392.52" y2="85.07" gradientTransform="matrix(-1, 0, 0, 1, 441.57, -49.54)" xlink:href="#Áåçûìÿííûé_ãðàäèåíò_254"/></defs><title>blog-signUP</title><path class="cls-2" d="M324,314.94,200,243.32a2.22,2.22,0,0,1,0-3.84L277,195a.55.55,0,0,1,.53,0l129.31,74.66a2.22,2.22,0,0,1,0,3.84l-71.8,41.46a11.11,11.11,0,0,1-11.08,0ZM200.5,240.41a1.14,1.14,0,0,0-.58,1,1.13,1.13,0,0,0,.58,1l124,71.62a10,10,0,0,0,10,0l71.8-41.46a1.12,1.12,0,0,0,.57-1,1.13,1.13,0,0,0-.57-1l-129-74.51Z" transform="translate(-158.43 -49.54)"/><path class="cls-3" d="M277.14,164.46,294.42,61.93,293,61.35l2.08-1.2h0a1.5,1.5,0,0,1,1.61.12L434.84,140a3.92,3.92,0,0,1,1.79,3.51L419.21,246.86a1.27,1.27,0,0,1-.72,1h0l-2,1.18-.36-1.91.12,0L278.94,168A3.9,3.9,0,0,1,277.14,164.46Z" transform="translate(-158.43 -49.54)"/><path class="cls-4" d="M434.07,142.82l2.27-1a3.15,3.15,0,0,1,.29,1.71L419.21,246.86a1.27,1.27,0,0,1-.72,1h0l-2,1.18-.36-1.91.12,0-6.95-4Z" transform="translate(-158.43 -49.54)"/><path class="cls-5" d="M276.77,169.21,414.88,249c1.07.62,2,.26,2.17-.84l17.42-103.35a3.9,3.9,0,0,0-1.8-3.5L294.56,61.52c-1.06-.62-2-.26-2.16.84L275,165.7A3.9,3.9,0,0,0,276.77,169.21Z" transform="translate(-158.43 -49.54)"/><g class="cls-6"><polygon class="cls-7" points="137.94 18.57 271.07 95.43 254.56 192.76 121.52 115.95 137.94 18.57"/></g><path class="cls-8" d="M190,218.14l7.54,3.93,75.58-43.63a5.49,5.49,0,0,1,4.93.2L408.35,253.9c1.25-.7,6.94-3.43,6.94-3.43l-2.76,7.19h0a1.62,1.62,0,0,1-.78.85l-79.59,46a5.48,5.48,0,0,1-4.94-.21l-133.39-77a2.31,2.31,0,0,1-1.11-1.19h0Z" transform="translate(-158.43 -49.54)"/><path class="cls-9" d="M191.12,219.38l136.7,78.92a5.6,5.6,0,0,0,5.06.21l81.58-47.1c1.29-.74,1.13-2-.36-2.91L277.39,169.57a5.6,5.6,0,0,0-5.06-.21l-81.57,47.1C189.46,217.21,189.62,218.51,191.12,219.38Z" transform="translate(-158.43 -49.54)"/><path class="cls-10" d="M369.48,281.18v-1.59c0-.15-.09-.22-.21-.15l-5.59,3.23a.49.49,0,0,0-.2.39v1.58c0,.15.09.22.2.16l5.59-3.23A.48.48,0,0,0,369.48,281.18Z" transform="translate(-158.43 -49.54)"/><path class="cls-10" d="M361.48,285.74v-1.58c0-.15-.09-.22-.21-.16l-5.59,3.23a.5.5,0,0,0-.2.39v1.59c0,.15.09.22.2.15l5.59-3.23A.47.47,0,0,0,361.48,285.74Z" transform="translate(-158.43 -49.54)"/><path class="cls-11" d="M393.19,247l-113.6-65.59a2.46,2.46,0,0,0-2.45,0l-40.45,23.4a.87.87,0,0,0,0,1.51l113.55,65.56a2.42,2.42,0,0,0,2.44,0l40.51-23.38A.87.87,0,0,0,393.19,247Z" transform="translate(-158.43 -49.54)"/><path class="cls-12" d="M393.19,248.51l-.41.24L279.59,183.39a2.46,2.46,0,0,0-2.45,0l-40,23.17-.4-.24a.87.87,0,0,1,0-1.51l40.45-23.4a2.46,2.46,0,0,1,2.45,0L393.19,247A.87.87,0,0,1,393.19,248.51Z" transform="translate(-158.43 -49.54)"/><polygon class="cls-5" points="115.66 137.8 214.34 194.77 218.73 192.24 120.05 135.26 115.66 137.8"/><polygon class="cls-5" points="104.9 144.01 197.46 197.45 201.85 194.91 109.29 141.48 104.9 144.01"/><polygon class="cls-5" points="97.9 148.05 206.87 210.97 211.26 208.44 102.28 145.52 97.9 148.05"/><polygon class="cls-5" points="90.89 152.1 199.87 215.02 204.25 212.48 95.28 149.57 90.89 152.1"/><polygon class="cls-5" points="83.88 156.14 192.86 219.06 197.25 216.53 88.27 153.61 83.88 156.14"/><polygon class="cls-5" points="220.3 198.21 224.69 200.75 229.08 198.21 224.69 195.68 220.3 198.21"/><polygon class="cls-5" points="204.83 201.7 213.93 206.96 218.32 204.42 209.21 199.17 204.83 201.7"/><path class="cls-13" d="M275.21,262.87l-30.63-17.68a1.32,1.32,0,0,1,0-2.5l20.95-12.1a4.79,4.79,0,0,1,4.33,0l30.64,17.69a1.32,1.32,0,0,1,0,2.5l-20.95,12.09A4.75,4.75,0,0,1,275.21,262.87Z" transform="translate(-158.43 -49.54)"/><path class="cls-12" d="M300.5,249.3l-30.64-17.68a4.79,4.79,0,0,0-4.33,0l-20.95,12.09a1.84,1.84,0,0,0-.75.74c-.32-.6-.08-1.29.75-1.76l20.95-12.1a4.79,4.79,0,0,1,4.33,0l30.64,17.69c.82.48,1.06,1.16.75,1.76A1.9,1.9,0,0,0,300.5,249.3Z" transform="translate(-158.43 -49.54)"/><g class="cls-14"><g class="cls-15"><path class="cls-16" d="M277.25,169.41,414,248.33a5.6,5.6,0,0,0,5.06.21l81.57-47.1c1.3-.74,1.14-2.05-.36-2.92L363.52,119.6a5.58,5.58,0,0,0-5-.21l-81.58,47.1C275.6,167.23,275.76,168.54,277.25,169.41Z" transform="translate(-158.43 -49.54)"/><path class="cls-17" d="M414.37,183.56l-30.63-17.69a1.32,1.32,0,0,1,0-2.5l20.94-12.1a4.81,4.81,0,0,1,4.34,0L439.65,169a1.32,1.32,0,0,1,0,2.5l-20.95,12.1A4.79,4.79,0,0,1,414.37,183.56Z" transform="translate(-158.43 -49.54)"/><path class="cls-12" d="M439.65,170,409,152.3a4.81,4.81,0,0,0-4.34,0l-20.94,12.09a1.93,1.93,0,0,0-.76.74c-.31-.6-.07-1.28.76-1.76l20.94-12.1a4.81,4.81,0,0,1,4.34,0L439.65,169c.83.48,1.07,1.16.75,1.76A1.9,1.9,0,0,0,439.65,170Z" transform="translate(-158.43 -49.54)"/><path class="cls-11" d="M453.11,211.19l-113.6-65.58a2.44,2.44,0,0,0-2.45,0L296.61,169a.87.87,0,0,0,0,1.51l113.55,65.56a2.44,2.44,0,0,0,2.45,0l40.5-23.38A.87.87,0,0,0,453.11,211.19Z" transform="translate(-158.43 -49.54)"/><path class="cls-12" d="M453.11,212.7l-.4.24-113.2-65.35a2.44,2.44,0,0,0-2.45,0l-40,23.17-.41-.24a.87.87,0,0,1,0-1.51l40.45-23.4a2.44,2.44,0,0,1,2.45,0l113.6,65.58A.87.87,0,0,1,453.11,212.7Z" transform="translate(-158.43 -49.54)"/><polygon class="cls-5" points="148.77 117.87 247.74 175.01 243.82 177.27 144.85 120.13 148.77 117.87"/><polygon class="cls-5" points="159.2 111.85 253.26 166.16 249.34 168.42 155.28 114.11 159.2 111.85"/><polygon class="cls-5" points="260.29 170.22 269.07 175.29 265.15 177.55 256.37 172.48 260.29 170.22"/><polygon class="cls-5" points="252.53 177.78 258.65 181.31 254.73 183.57 248.61 180.04 252.53 177.78"/><polygon class="cls-5" points="165.73 108.08 275.61 171.51 271.69 173.78 161.81 110.34 165.73 108.08"/><polygon class="cls-5" points="172.27 104.31 282.14 167.74 278.22 170.01 168.35 106.57 172.27 104.31"/><polygon class="cls-5" points="178.8 100.53 288.68 163.97 284.76 166.23 174.88 102.8 178.8 100.53"/><path class="cls-18" d="M321,153,391,193.46c1.92,1.1,3.47-.07,3.47-2.62V151.56a8.29,8.29,0,0,0-3.47-6.62L321,104.49c-1.92-1.11-3.47.07-3.47,2.62v39.27C317.48,148.93,319,151.9,321,153Z" transform="translate(-158.43 -49.54)"/></g></g><path class="cls-19" d="M318,163.18,388,203.63c1.92,1.11,3.47-.07,3.47-2.62V161.74a8.31,8.31,0,0,0-3.47-6.63L318,114.66c-1.92-1.1-3.47.07-3.47,2.62v39.28A8.29,8.29,0,0,0,318,163.18Z" transform="translate(-158.43 -49.54)"/><path class="cls-20" d="M309.48,107.4l2-1.43h0A2.13,2.13,0,0,1,314,106L384,146.48a8.3,8.3,0,0,1,3.47,6.63v39.27a3.16,3.16,0,0,1-1.11,2.74h0l-2.08,1.49-.12-1.52L384,195,314,154.55a8.31,8.31,0,0,1-3.47-6.63V108.65a5.37,5.37,0,0,1,.1-1Z" transform="translate(-158.43 -49.54)"/><path class="cls-21" d="M386.87,151.54l-18.48,10.67-4.66-2.69,21-12.12A8.88,8.88,0,0,1,386.87,151.54Z" transform="translate(-158.43 -49.54)"/><path class="cls-22" d="M312,156,382,196.49c1.92,1.11,3.47-.07,3.47-2.62V154.6A8.31,8.31,0,0,0,382,148L312,107.52c-1.92-1.1-3.47.07-3.47,2.62v39.27A8.3,8.3,0,0,0,312,156Z" transform="translate(-158.43 -49.54)"/><path class="cls-23" d="M318.32,131.34l57.07,32.91c.44.26.81.39,1.07,0a.47.47,0,0,0,0-.24v-8.65a2.19,2.19,0,0,0-.91-1.75l-57.51-33.2c-.05,0-.09-.07-.13-.06-.43.07-.45.46-.45,1.08l-.14,8.3A2,2,0,0,0,318.32,131.34Z" transform="translate(-158.43 -49.54)"/><path class="cls-23" d="M318.31,150.21l57.06,32.88c.44.26,1,.52,1.09,0a1.66,1.66,0,0,0,0-.24v-8.64a2.19,2.19,0,0,0-.91-1.74l-57.4-33.14-.14-.06c-.44-.17-.55.4-.55,1l0,8.18A2.11,2.11,0,0,0,318.31,150.21Z" transform="translate(-158.43 -49.54)"/><path class="cls-24" d="M317.55,120.31a.8.8,0,0,1-.07.24v8.67a2.42,2.42,0,0,0,1,1.75L376,164.22a.42.42,0,0,0,.14.06c-.09.51-.46.71-.9.46l-57.6-33.26a3.79,3.79,0,0,1-1.2-1.75v-8.67C316.77,120.45,317.1,120.15,317.55,120.31Z" transform="translate(-158.43 -49.54)"/><path class="cls-24" d="M317.55,139.22a.75.75,0,0,1-.07.23v8.67a2.39,2.39,0,0,0,1,1.75L376,183.13l.14.06c-.09.5-.46.71-.9.45l-57.6-33.26a3.81,3.81,0,0,1-1.2-1.74V140C316.77,139.35,317.1,139.05,317.55,139.22Z" transform="translate(-158.43 -49.54)"/><path class="cls-24" d="M359.73,151.37l-.7,1.33L357.69,151l1-1.05-1.53-1.55.5-1.29,1.38,1.69-.19-2,1.68,1-.17,1.79,1.37-.08.51,1.85-1.5-.19,1,2.23-1.32.14Z" transform="translate(-158.43 -49.54)"/><path class="cls-24" d="M353.11,147.55l-.7,1.33-1.34-1.68,1-1-1.53-1.56.5-1.28,1.37,1.69-.18-2,1.68,1-.17,1.79,1.37-.08.51,1.85-1.5-.2,1,2.24-1.32.14Z" transform="translate(-158.43 -49.54)"/><path class="cls-24" d="M346.49,143.72l-.7,1.34-1.34-1.69,1-1.05-1.52-1.55.5-1.28,1.37,1.68-.18-2,1.68,1-.17,1.8,1.37-.08.51,1.85-1.5-.2,1,2.24-1.32.14Z" transform="translate(-158.43 -49.54)"/><path class="cls-24" d="M339.87,139.9l-.7,1.33-1.34-1.68,1-1.05L337.32,137l.5-1.29,1.37,1.69-.18-2,1.68,1-.17,1.8,1.37-.09.51,1.86-1.5-.2,1,2.23-1.32.15Z" transform="translate(-158.43 -49.54)"/><path class="cls-24" d="M333.25,136.08l-.7,1.33-1.34-1.68,1-1-1.52-1.55.5-1.29,1.37,1.69-.18-2,1.68,1-.18,1.79,1.38-.08.51,1.85-1.5-.19,1,2.23-1.32.14Z" transform="translate(-158.43 -49.54)"/><path class="cls-24" d="M359.73,170.27l-.7,1.33-1.34-1.68,1-1-1.53-1.55.5-1.29,1.38,1.69-.19-2,1.68,1-.17,1.8,1.37-.09.51,1.86-1.5-.2,1,2.23-1.32.15Z" transform="translate(-158.43 -49.54)"/><path class="cls-24" d="M353.11,166.45l-.7,1.33-1.34-1.68,1-1-1.53-1.55.5-1.29,1.37,1.69-.18-2,1.68,1-.17,1.79,1.37-.08.51,1.85-1.5-.19,1,2.23-1.32.14Z" transform="translate(-158.43 -49.54)"/><path class="cls-24" d="M346.49,162.63l-.7,1.33-1.34-1.68,1-1.05-1.52-1.56.5-1.28,1.37,1.69-.18-2,1.68,1-.17,1.79,1.37-.08.51,1.85-1.5-.19,1,2.23-1.32.14Z" transform="translate(-158.43 -49.54)"/><path class="cls-24" d="M339.87,158.8l-.7,1.34-1.34-1.69,1-1-1.52-1.55.5-1.28,1.37,1.68-.18-2,1.68,1-.17,1.8,1.37-.08.51,1.85-1.5-.2,1,2.24-1.32.14Z" transform="translate(-158.43 -49.54)"/><path class="cls-24" d="M333.25,155l-.7,1.33-1.34-1.68,1-1L330.7,152l.5-1.29,1.37,1.69-.18-2,1.68,1-.18,1.8,1.38-.09.51,1.86-1.5-.2,1,2.23-1.32.15Z" transform="translate(-158.43 -49.54)"/><rect class="cls-25" x="390.58" y="282.11" width="1.07" height="27.7" transform="translate(-219.11 437.33) rotate(-60.02)"/><path class="cls-26" d="M435.87,332.9a.53.53,0,0,0,.53-.49.54.54,0,0,0-.49-.58,55.28,55.28,0,0,1-22.78-6.91c-7.17-4.14-11.46-8.26-12.76-12.25a.54.54,0,1,0-1,.33c1.38,4.25,5.84,8.57,13.25,12.85a56.26,56.26,0,0,0,23.22,7Z" transform="translate(-158.43 -49.54)"/><path class="cls-27" d="M399.43,310.26a.54.54,0,0,0,.54-.52c.11-3.18,2.42-6.15,6.68-8.61,9.42-5.44,21.7-5.41,34.58.08a.54.54,0,0,0,.42-1c-13.2-5.62-25.82-5.63-35.53,0-4.6,2.65-7.09,5.94-7.22,9.5a.54.54,0,0,0,.51.56Z" transform="translate(-158.43 -49.54)"/><path class="cls-28" d="M444,332.87h.05a28.41,28.41,0,0,0,11.45-3.28c3.32-1.92,5.39-4.51,6-7.5a1.36,1.36,0,0,0-.35-1.18,3.27,3.27,0,0,0-2.62-.89,2.55,2.55,0,0,0-2.47,1.43,9,9,0,0,1-4.52,5.22c-8.36,4.83-24.47,3.39-35.9-3.21-7.38-4.26-11.28-8.6-11.28-12.56,0-2.78,2-5.39,5.71-7.55,9.64-5.56,22.73-4.39,35.9,3.22,4.75,2.74,8.16,6.1,9.6,9.46a2.45,2.45,0,0,0,2.29,1.19,2.8,2.8,0,0,0,2.42-1,1.24,1.24,0,0,0,.08-1.22c-1.95-3.93-5.86-7.68-11.32-10.83a.54.54,0,1,0-.54.93c5.28,3.05,9.05,6.64,10.89,10.38a.12.12,0,0,1,0,.16,1.76,1.76,0,0,1-1.49.5,1.57,1.57,0,0,1-1.34-.54c-1.52-3.57-5.09-7.11-10-10-13.52-7.8-27-9-37-3.21-4.09,2.35-6.25,5.29-6.25,8.47,0,4.43,4,9,11.82,13.49,11.72,6.77,28.31,8.21,37,3.21a10.16,10.16,0,0,0,5-5.85c.09-.29.68-.62,1.5-.66a2.24,2.24,0,0,1,1.75.52.33.33,0,0,1,.11.28c-.54,2.67-2.43,5-5.47,6.77a27.5,27.5,0,0,1-11,3.15.53.53,0,0,0,0,1.06Z" transform="translate(-158.43 -49.54)"/><path class="cls-29" d="M430.54,327.35a3,3,0,0,0,2.14-.79,1.29,1.29,0,0,0,.3-1.27,2.06,2.06,0,0,0-1.65-1.2,34,34,0,0,1-10.18-3.8c-4.95-2.86-7.76-5.71-8.11-8.26a4.08,4.08,0,0,1,1.31-3.52,1.38,1.38,0,0,0,.39-1.27,2,2,0,0,0-1.39-1.31,3.71,3.71,0,0,0-3.7.63,6.5,6.5,0,0,0-2,5.07c.21,2.65,2.12,5.38,5.69,8.14a.54.54,0,1,0,.66-.85c-3.32-2.56-5.1-5-5.28-7.37a5.49,5.49,0,0,1,1.7-4.26,2.76,2.76,0,0,1,2.56-.35c.46.16.67.39.7.54s0,.13-.11.28a5.11,5.11,0,0,0-1.6,4.42c.4,2.93,3.31,6,8.63,9a35.27,35.27,0,0,0,10.5,3.92c.51.1.8.32.85.49,0,0,0,.09-.08.21a2.21,2.21,0,0,1-1.89.38,40,40,0,0,1-11.54-4.37.54.54,0,1,0-.54.93,41.22,41.22,0,0,0,11.86,4.48A3.31,3.31,0,0,0,430.54,327.35Z" transform="translate(-158.43 -49.54)"/><path class="cls-30" d="M436.89,327.42a1.4,1.4,0,0,1-.42-1.07c0-.89,1-1.58,2.4-1.65a14.73,14.73,0,0,0,6.41-1.65A5,5,0,0,0,448,319.5c.27-1.78-.6-3.86-2.46-5.88a2.4,2.4,0,0,0-2.29-.25c-.31.12-.47.29-.49.4s0,.08.08.18c1.68,1.83,2.44,3.65,2.19,5.28a4.2,4.2,0,0,1-2.24,3c-4.09,2.36-12.8,1.18-19.4-2.63-4.82-2.78-7.26-5.45-7.26-7.94,0-1.51.93-2.86,2.71-3.88,4.4-2.54,11-1.86,18,1.87a2.58,2.58,0,0,0,2.19,0c.19-.11.31-.24.31-.34s-.1-.24-.36-.38c-7.1-3.76-14-4.92-19.52-3.28a3.63,3.63,0,0,1-3.57-.72h0a1.32,1.32,0,0,1-.32-1.28,2.14,2.14,0,0,1,1.57-1.31c7.68-2.27,17.11-.52,26.55,4.93,6,3.44,9.51,7.91,9.51,12,0,2.68-1.48,4.95-4.29,6.57a21.11,21.11,0,0,1-9.81,2.38H439A3,3,0,0,1,436.89,327.42Zm-19.4-24.08c-.51.15-.79.4-.84.59,0,0,0,.13.1.28a2.67,2.67,0,0,0,2.45.4c5.76-1.73,13-.54,20.33,3.36a1.56,1.56,0,0,1,.93,1.3,1.49,1.49,0,0,1-.84,1.28,3.59,3.59,0,0,1-3.24.05c-6.72-3.55-12.91-4.24-17-1.88-1.44.83-2.17,1.82-2.17,2.95,0,2,2.38,4.51,6.72,7,6.31,3.65,14.54,4.83,18.34,2.63a3.16,3.16,0,0,0,1.72-2.24c.19-1.28-.5-2.83-1.93-4.39a1.24,1.24,0,0,1-.34-1.14,1.73,1.73,0,0,1,1.13-1.16,3.38,3.38,0,0,1,3.48.52c2.09,2.25,3.06,4.66,2.74,6.77a6.11,6.11,0,0,1-3.26,4.31,15.78,15.78,0,0,1-6.88,1.79c-.84,0-1.38.4-1.39.68a.35.35,0,0,0,.12.22,2.07,2.07,0,0,0,1.46.43,20,20,0,0,0,9.3-2.24c2.46-1.41,3.76-3.37,3.76-5.64,0-3.67-3.35-7.8-9-11-6.58-3.8-13.14-5.76-19-5.76A23.52,23.52,0,0,0,417.49,303.34Zm-1.16.92h0Z" transform="translate(-158.43 -49.54)"/><path class="cls-31" d="M436.48,321.25a6.43,6.43,0,0,0,3.17-.68,2.38,2.38,0,0,0,1.31-2.13c0-1.91-2.06-4.25-5.52-6.24-5.6-3.24-10.5-4.13-13.44-2.43a2.7,2.7,0,0,0-1.56,2.28c0,1.56,1.41,3.31,4.33,5.21a3.56,3.56,0,0,0,3.4.06,1.51,1.51,0,0,0,.84-1.23,1.42,1.42,0,0,0-.73-1.23c-2.34-1.51-2.34-2.14-2.34-2.15.66-.37,2.63,0,6.2,2,2.47,1.43,3.49,2.66,3.49,3a.55.55,0,0,0,.53.54h0a.54.54,0,0,0,.53-.54c0-1.47-3.08-3.38-4-3.92-2.45-1.42-5.69-2.92-7.21-2a1.08,1.08,0,0,0-.59.93c0,.52.27,1.41,2.83,3.07a.47.47,0,0,1,.24.3c0,.07-.08.21-.3.33a2.53,2.53,0,0,1-2.29,0c-3.38-2.21-3.86-3.64-3.84-4.3a1.71,1.71,0,0,1,1-1.37c1.22-.71,4.89-1.89,12.37,2.42,3,1.75,5,3.84,5,5.32a1.37,1.37,0,0,1-.78,1.21c-1.3.75-3.86.71-6.84-.12a.54.54,0,1,0-.28,1A17.44,17.44,0,0,0,436.48,321.25Z" transform="translate(-158.43 -49.54)"/><path class="cls-32" d="M392.74,341.48a6.38,6.38,0,0,0,3.17-.85l21.27-12.28-.53-.93L395.37,339.7a5.26,5.26,0,0,1-5.26,0l-21.52-12.43-.54.93,21.53,12.43A6.35,6.35,0,0,0,392.74,341.48Z" transform="translate(-158.43 -49.54)"/><path class="cls-33" d="M348.36,326.91c-2.35-1.35-3.64-3.19-3.64-5.17s1.29-3.81,3.64-5.17c4.64-2.68,12.2-2.68,16.84,0,2.35,1.36,3.64,3.2,3.64,5.17s-1.29,3.82-3.64,5.17a18.64,18.64,0,0,1-16.84,0Zm.54-9.41h0c-2,1.16-3.11,2.66-3.11,4.24s1.1,3.09,3.11,4.24a17.43,17.43,0,0,0,15.76,0c2-1.15,3.11-2.66,3.11-4.24s-1.1-3.08-3.11-4.24a17.45,17.45,0,0,0-15.76,0Zm3.21,7.25h0a3.21,3.21,0,0,1,0-6,10.22,10.22,0,0,1,9.35,0,3.21,3.21,0,0,1,0,6,10.16,10.16,0,0,1-9.35,0Zm.53-5.09a2.17,2.17,0,0,0,0,4.16h0a9.15,9.15,0,0,0,8.28,0,2.17,2.17,0,0,0,0-4.16,9.15,9.15,0,0,0-8.28,0Z" transform="translate(-158.43 -49.54)"/><path class="cls-34" d="M345.41,328.62h0c-3.14-1.82-4.86-4.26-4.86-6.88s1.72-5.06,4.86-6.87c6.27-3.62,16.47-3.62,22.74,0,3.14,1.81,4.87,4.25,4.87,6.87s-1.73,5.06-4.87,6.88a25.21,25.21,0,0,1-22.74,0ZM346,315.8c-2.8,1.61-4.33,3.72-4.33,5.94s1.53,4.34,4.33,5.95h0c6,3.45,15.69,3.45,21.66,0,2.8-1.61,4.34-3.73,4.34-5.95s-1.54-4.33-4.33-5.94a24,24,0,0,0-21.67,0Z" transform="translate(-158.43 -49.54)"/><path class="cls-35" d="M206.9,136.2l-48.2-27.83a.55.55,0,0,1-.27-.47.52.52,0,0,1,.27-.46l48.2-27.83a.52.52,0,0,1,.54,0l48.2,27.83a.54.54,0,0,1,0,.92L207.43,136.2a.59.59,0,0,1-.26.07A.6.6,0,0,1,206.9,136.2Zm.27-55.51L160,107.9l47.14,27.21L254.3,107.9Z" transform="translate(-158.43 -49.54)"/><polygon class="cls-36" points="4.05 47.9 4.05 38.81 49.05 63.64 94.05 38.81 94.05 47.9 49.05 73.88 4.05 47.9"/><polygon class="cls-37" points="48.74 64.83 93.93 38.74 48.74 12.65 3.55 38.74 48.74 64.83"/><polygon class="cls-38" points="48.74 64.08 93.28 38.36 93.93 38.74 48.74 64.83 3.55 38.74 4.2 38.36 48.74 64.08"/><polygon class="cls-39" points="48.74 54.87 76.68 38.74 48.74 22.61 20.8 38.74 48.74 54.87"/><polygon class="cls-40" points="48.74 54.87 76.68 38.74 48.74 22.61 20.8 38.74 48.74 54.87"/><polygon class="cls-41" points="49.05 0 21.05 16.17 21.05 38.78 49.05 22.62 49.05 0"/><polygon class="cls-42" points="49.05 22.62 77.05 38.78 77.05 16.17 49.05 0 49.05 22.62"/><polygon class="cls-43" points="48.74 32.3 76.68 16.17 48.74 0.04 20.8 16.17 48.74 32.3"/><polygon class="cls-44" points="49.05 32.3 49.05 54.91 21.05 38.75 21.05 16.13 49.05 32.3"/><polygon class="cls-45" points="77.05 16.13 77.05 38.75 49.05 54.91 49.05 32.3 77.05 16.13"/></svg>